<svg xmlns="http://www.w3.org/2000/svg" viewBox="0 0 389.02 229.29"><defs><style>.cls-1{fill:#e8505b;}.cls-2{opacity:0.6;}.cls-3{fill:#455a64;}.cls-4{fill:#263238;}.cls-5{fill:#fafafa;}.cls-6{opacity:0.4;}.cls-7{fill:#e0e0e0;}.cls-8{opacity:0.3;}.cls-9{fill:#fff;}</style></defs><title>4x4</title><g id="Calque_2" data-name="Calque 2"><g id="Off_Road" data-name="Off Road"><rect class="cls-1" x="38.4" y="129.82" width="323.59" height="55.87" transform="translate(-1.38 1.76) rotate(-0.5)"/><g class="cls-2"><rect x="38.4" y="129.82" width="323.59" height="55.87" transform="translate(-1.38 1.76) rotate(-0.5)"/></g><rect class="cls-3" x="0.28" y="85.66" width="29.84" height="78.65" rx="7.14" transform="translate(-1.09 0.14) rotate(-0.5)"/><path class="cls-4" d="M4.3,163.45a2.65,2.65,0,0,1,1.16-2.13c.52-.47.82-.76.82-1.38s-.31-.9-.84-1.36a2.51,2.51,0,0,1,0-4.25c.52-.46.82-.76.82-1.37s-.31-.91-.84-1.37a2.51,2.51,0,0,1,0-4.24c.52-.47.82-.76.82-1.37s-.31-.91-.84-1.37a2.62,2.62,0,0,1-1.18-2.11,2.66,2.66,0,0,1,1.15-2.13c.53-.46.83-.76.82-1.37s-.3-.91-.83-1.36a2.51,2.51,0,0,1,0-4.25c.53-.46.83-.76.82-1.37s-.3-.91-.83-1.37a2.66,2.66,0,0,1-1.19-2.11,2.69,2.69,0,0,1,1.16-2.13c.53-.47.83-.76.82-1.37s-.3-.91-.84-1.37a2.7,2.7,0,0,1-1.18-2.12,2.67,2.67,0,0,1,1.16-2.13c.53-.46.82-.75.82-1.37s-.3-.91-.84-1.37a2.51,2.51,0,0,1,0-4.24c.52-.47.82-.76.82-1.38s-.31-.91-.84-1.37a2.51,2.51,0,0,1,0-4.24c.52-.47.82-.76.82-1.38s-.31-.9-.84-1.36a2.52,2.52,0,0,1,0-4.25c.53-.47.83-.76.83-1.38s-.31-.9-.84-1.36a2.53,2.53,0,0,1,0-4.26c.53-.46.83-.76.82-1.38s-.3-.91-.83-1.37a2.66,2.66,0,0,1-1.19-2.12h1c0,.62.31.91.84,1.37a2.52,2.52,0,0,1,0,4.25c-.53.47-.83.76-.82,1.38s.3.91.83,1.37a2.51,2.51,0,0,1,0,4.25c-.53.46-.83.76-.82,1.37s.3.91.83,1.37a2.51,2.51,0,0,1,0,4.25c-.53.46-.83.75-.82,1.37s.3.91.84,1.37a2.51,2.51,0,0,1,0,4.25c-.53.46-.82.75-.82,1.37s.3.91.84,1.37a2.51,2.51,0,0,1,0,4.24c-.52.47-.82.76-.82,1.38s.31.9.84,1.36a2.51,2.51,0,0,1,0,4.25c-.52.46-.82.76-.82,1.37s.31.91.84,1.37a2.51,2.51,0,0,1,0,4.24c-.52.47-.82.76-.82,1.37s.31.91.84,1.37A2.62,2.62,0,0,1,7.15,139,2.69,2.69,0,0,1,6,141.12c-.53.47-.83.76-.83,1.37s.31.91.84,1.37A2.66,2.66,0,0,1,7.2,146,2.69,2.69,0,0,1,6,148.1c-.53.46-.83.76-.82,1.37s.3.91.83,1.37A2.66,2.66,0,0,1,7.24,153a2.69,2.69,0,0,1-1.16,2.13c-.53.47-.83.76-.82,1.38s.3.9.83,1.36a2.51,2.51,0,0,1,0,4.25c-.53.46-.82.75-.82,1.37Z"/><path class="cls-4" d="M9.27,164.35a2.7,2.7,0,0,1,1.15-2.16c.46-.43.83-.76.82-1.43s-.38-1-.84-1.4a2.58,2.58,0,0,1,0-4.32,1.62,1.62,0,0,0,0-2.83,2.58,2.58,0,0,1,0-4.32,1.81,1.81,0,0,0,.82-1.42c0-.67-.38-1-.85-1.41a2.57,2.57,0,0,1,0-4.31,1.62,1.62,0,0,0,0-2.83,2.58,2.58,0,0,1,0-4.32,1.78,1.78,0,0,0,.82-1.42,1.82,1.82,0,0,0-.84-1.4,2.58,2.58,0,0,1,0-4.32,1.62,1.62,0,0,0,0-2.83,2.58,2.58,0,0,1,0-4.32,1.81,1.81,0,0,0,.82-1.42c0-.67-.38-1-.85-1.41a2.58,2.58,0,0,1,0-4.32,1.62,1.62,0,0,0,0-2.83,2.58,2.58,0,0,1,0-4.32,1.78,1.78,0,0,0,.82-1.42c0-.67-.38-1-.85-1.41a2.58,2.58,0,0,1,0-4.32,1.62,1.62,0,0,0,0-2.83,2.6,2.6,0,0,1,0-4.33,1.62,1.62,0,0,0,0-2.83,2.76,2.76,0,0,1-1.19-2.16h1a1.79,1.79,0,0,0,.85,1.41,2.78,2.78,0,0,1,1.18,2.16,2.74,2.74,0,0,1-1.14,2.17,1.8,1.8,0,0,0-.82,1.43,1.77,1.77,0,0,0,.84,1.41,2.58,2.58,0,0,1,0,4.32,1.62,1.62,0,0,0,0,2.83,2.58,2.58,0,0,1,0,4.32,1.62,1.62,0,0,0,0,2.83,2.58,2.58,0,0,1,0,4.32,1.62,1.62,0,0,0,0,2.83,2.58,2.58,0,0,1,0,4.32,1.62,1.62,0,0,0,0,2.83,2.58,2.58,0,0,1,0,4.32,1.78,1.78,0,0,0-.82,1.42c0,.67.38,1,.85,1.41a2.58,2.58,0,0,1,0,4.31,1.62,1.62,0,0,0,0,2.83,2.59,2.59,0,0,1,0,4.32,1.6,1.6,0,0,0,0,2.82,2.58,2.58,0,0,1,0,4.32,1.62,1.62,0,0,0,0,2.83,2.58,2.58,0,0,1,0,4.32,1.78,1.78,0,0,0-.82,1.42c0,.67.38,1,.85,1.41a2.74,2.74,0,0,1,1.18,2.15,2.7,2.7,0,0,1-1.15,2.16,1.83,1.83,0,0,0-.82,1.42Z"/><path class="cls-4" d="M14.24,164.31a2.72,2.72,0,0,1,1.15-2.17,1.81,1.81,0,0,0,.82-1.42c0-.67-.38-1-.85-1.41a2.58,2.58,0,0,1,0-4.32,1.61,1.61,0,0,0,0-2.82A2.71,2.71,0,0,1,14.12,150a2.74,2.74,0,0,1,1.14-2.17,1.62,1.62,0,0,0,0-2.83,2.58,2.58,0,0,1,0-4.32,1.78,1.78,0,0,0,.82-1.42c0-.67-.38-1-.84-1.4a2.58,2.58,0,0,1,0-4.32,1.81,1.81,0,0,0,.82-1.42c0-.67-.38-1-.85-1.41a2.74,2.74,0,0,1-1.18-2.15,2.7,2.7,0,0,1,1.15-2.16A1.83,1.83,0,0,0,15.9,125a1.79,1.79,0,0,0-.85-1.41,2.58,2.58,0,0,1,0-4.32,1.62,1.62,0,0,0,0-2.83,2.58,2.58,0,0,1,0-4.32,1.78,1.78,0,0,0,.82-1.42,1.81,1.81,0,0,0-.85-1.41,2.76,2.76,0,0,1-1.18-2.15A2.72,2.72,0,0,1,14.89,105a1.62,1.62,0,0,0,0-2.83,2.59,2.59,0,0,1,0-4.32,1.62,1.62,0,0,0,0-2.83,2.59,2.59,0,0,1,0-4.33,1.79,1.79,0,0,0,.82-1.43c0-.67-.37-1-.84-1.41a2.72,2.72,0,0,1-1.19-2.15h1a1.81,1.81,0,0,0,.85,1.41,2.59,2.59,0,0,1,0,4.33,1.81,1.81,0,0,0-.82,1.43,1.79,1.79,0,0,0,.85,1.4,2.6,2.6,0,0,1,0,4.33,1.62,1.62,0,0,0,0,2.83,2.58,2.58,0,0,1,0,4.32,1.78,1.78,0,0,0-.82,1.42c0,.67.38,1,.84,1.41a2.58,2.58,0,0,1,0,4.32,1.62,1.62,0,0,0,0,2.83,2.59,2.59,0,0,1,0,4.32,1.79,1.79,0,0,0-.83,1.42c0,.67.38,1,.85,1.41a2.58,2.58,0,0,1,0,4.32,1.78,1.78,0,0,0-.82,1.42c0,.67.37,1,.84,1.4a2.58,2.58,0,0,1,0,4.32,1.78,1.78,0,0,0-.82,1.42c0,.67.38,1,.85,1.41a2.58,2.58,0,0,1,0,4.31,1.62,1.62,0,0,0,0,2.83,2.59,2.59,0,0,1,0,4.32,1.76,1.76,0,0,0-.82,1.42c0,.67.37,1,.84,1.41a2.58,2.58,0,0,1,0,4.32,1.77,1.77,0,0,0-.82,1.42c0,.67.37,1,.84,1.4a2.58,2.58,0,0,1,0,4.32,1.78,1.78,0,0,0-.82,1.42Z"/><path class="cls-4" d="M19.21,164.27a2.72,2.72,0,0,1,1.15-2.17,1.62,1.62,0,0,0,0-2.83,2.59,2.59,0,0,1,0-4.32,1.76,1.76,0,0,0,.82-1.42c0-.67-.37-1-.84-1.41a2.57,2.57,0,0,1,0-4.31,1.8,1.8,0,0,0,.82-1.43c0-.67-.38-1-.84-1.4a2.58,2.58,0,0,1,0-4.32,1.81,1.81,0,0,0,.82-1.42c0-.67-.38-1-.85-1.41A2.74,2.74,0,0,1,19,135.68a2.7,2.7,0,0,1,1.15-2.16,1.62,1.62,0,0,0,0-2.83,2.71,2.71,0,0,1-1.18-2.15A2.74,2.74,0,0,1,20,126.37a1.78,1.78,0,0,0,.82-1.42c0-.67-.37-1-.84-1.41a2.58,2.58,0,0,1,0-4.32,1.78,1.78,0,0,0,.82-1.42c0-.67-.38-1-.84-1.4a2.74,2.74,0,0,1-1.19-2.15,2.71,2.71,0,0,1,1.15-2.17,1.83,1.83,0,0,0,.82-1.43c0-.67-.38-1-.85-1.41a2.58,2.58,0,0,1,0-4.32,1.61,1.61,0,0,0,0-2.82,2.59,2.59,0,0,1,0-4.33,1.62,1.62,0,0,0,0-2.83,2.58,2.58,0,0,1,0-4.32,1.63,1.63,0,0,0,0-2.84,2.76,2.76,0,0,1-1.18-2.16h1c0,.67.38,1,.84,1.41a2.59,2.59,0,0,1,0,4.33,1.62,1.62,0,0,0,0,2.83,2.59,2.59,0,0,1,0,4.32,1.81,1.81,0,0,0-.83,1.43,1.79,1.79,0,0,0,.85,1.4,2.59,2.59,0,0,1,0,4.33,1.77,1.77,0,0,0-.82,1.42c0,.67.37,1,.84,1.4a2.74,2.74,0,0,1,1.19,2.15,2.71,2.71,0,0,1-1.15,2.17,1.8,1.8,0,0,0-.82,1.43c0,.67.38,1,.85,1.41a2.58,2.58,0,0,1,0,4.31,1.83,1.83,0,0,0-.82,1.43,1.79,1.79,0,0,0,.85,1.4,2.59,2.59,0,0,1,0,4.32,1.61,1.61,0,0,0,0,2.83,2.58,2.58,0,0,1,0,4.32,1.78,1.78,0,0,0-.82,1.42c0,.67.37,1,.84,1.4a2.58,2.58,0,0,1,0,4.32,1.78,1.78,0,0,0-.82,1.42c0,.67.38,1,.85,1.41a2.58,2.58,0,0,1,0,4.32,1.81,1.81,0,0,0-.82,1.42,1.79,1.79,0,0,0,.85,1.4,2.59,2.59,0,0,1,0,4.32,1.62,1.62,0,0,0,0,2.83,2.72,2.72,0,0,1,1.19,2.15A2.75,2.75,0,0,1,21,162.84a1.78,1.78,0,0,0-.82,1.42Z"/><path class="cls-4" d="M24.18,164.22a2.76,2.76,0,0,1,1.14-2.17,1.6,1.6,0,0,0,0-2.82,2.58,2.58,0,0,1,0-4.32,1.62,1.62,0,0,0,0-2.83,2.58,2.58,0,0,1,0-4.32,1.78,1.78,0,0,0,.82-1.42c0-.67-.38-1-.85-1.41A2.74,2.74,0,0,1,24,142.78a2.7,2.7,0,0,1,1.15-2.16,1.62,1.62,0,0,0,0-2.83,2.59,2.59,0,0,1,0-4.32,1.76,1.76,0,0,0,.82-1.42c0-.67-.37-1-.84-1.4a2.72,2.72,0,0,1-1.19-2.15A2.75,2.75,0,0,1,25,126.33a1.62,1.62,0,0,0,0-2.83,2.58,2.58,0,0,1,0-4.32,1.62,1.62,0,0,0,0-2.83,2.58,2.58,0,0,1,0-4.32,1.62,1.62,0,0,0,0-2.83,2.59,2.59,0,0,1,0-4.32,1.62,1.62,0,0,0,0-2.83,2.58,2.58,0,0,1,0-4.32,1.78,1.78,0,0,0,.82-1.42,1.83,1.83,0,0,0-.84-1.41,2.59,2.59,0,0,1,0-4.33,1.62,1.62,0,0,0,0-2.83,2.78,2.78,0,0,1-1.18-2.16h1A1.76,1.76,0,0,0,25.33,87a2.76,2.76,0,0,1,1.19,2.16,2.72,2.72,0,0,1-1.15,2.17,1.8,1.8,0,0,0-.82,1.43,1.83,1.83,0,0,0,.84,1.41,2.58,2.58,0,0,1,0,4.32,1.62,1.62,0,0,0,0,2.83,2.59,2.59,0,0,1,0,4.32,1.61,1.61,0,0,0,0,2.83,2.58,2.58,0,0,1,0,4.32,1.62,1.62,0,0,0,0,2.83,2.58,2.58,0,0,1,0,4.32,1.78,1.78,0,0,0-.82,1.42,1.81,1.81,0,0,0,.85,1.41,2.58,2.58,0,0,1,0,4.32,1.81,1.81,0,0,0-.82,1.42c0,.67.38,1,.85,1.41a2.58,2.58,0,0,1,0,4.31,1.62,1.62,0,0,0,0,2.83,2.58,2.58,0,0,1,0,4.32c-.46.42-.83.75-.82,1.41s.38,1,.84,1.41a2.58,2.58,0,0,1,0,4.32,1.62,1.62,0,0,0,0,2.83,2.58,2.58,0,0,1,0,4.32,1.81,1.81,0,0,0-.82,1.42c0,.67.38,1,.85,1.41a2.58,2.58,0,0,1,0,4.31,1.76,1.76,0,0,0-.82,1.42Z"/><polygon class="cls-3" points="246.52 118.87 46.3 120.63 66.15 58.55 216.49 57.23 246.52 118.87"/><path class="cls-4" d="M195.75,72.33l-27,29.55"/><path class="cls-5" d="M168.71,101.88c-.1-.1,5.86-6.79,13.33-14.95s13.6-14.69,13.71-14.6-5.86,6.79-13.33,15S168.82,102,168.71,101.88Z"/><path class="cls-4" d="M178.5,80.65Q169.76,89.71,161,98.78"/><path class="cls-5" d="M161,98.78c-.1-.1,3.72-4.24,8.55-9.24s8.81-9,8.92-8.89-3.73,4.24-8.55,9.25S161.13,98.88,161,98.78Z"/><path class="cls-4" d="M124.86,75.1,93.1,106.52"/><path class="cls-5" d="M93.1,106.52c-.1-.1,6.93-7.22,15.69-15.89s16-15.63,16.07-15.53-6.93,7.22-15.7,15.9S93.2,106.62,93.1,106.52Z"/><path class="cls-4" d="M99.51,89a273.41,273.41,0,0,1-21,20"/><path class="cls-5" d="M78.53,109a5.21,5.21,0,0,1,.8-.82l2.28-2.11c1.94-1.77,4.6-4.23,7.5-7s5.47-5.3,7.33-7.15l2.21-2.18a5.71,5.71,0,0,1,.86-.76,4.7,4.7,0,0,1-.71.9c-.48.55-1.2,1.34-2.1,2.3-1.79,1.91-4.33,4.5-7.23,7.27s-5.61,5.18-7.61,6.89c-1,.85-1.82,1.53-2.4,2A4.17,4.17,0,0,1,78.53,109Z"/><path class="cls-4" d="M29.46,118.49l29-59.87a10.75,10.75,0,0,1,9.56-6l139.2-1.22s11.57-.55,15,9.68l-11,.1-68.84.61,1.66,58-8.56.07-.81-58-53.9.48A17.49,17.49,0,0,0,64,75.37l-11.76,45.2Z"/><path class="cls-1" d="M29.86,164.1l-.4-45.61L228,116.75l6-14.64-22.73-41,11-.1,26,42.9,85.36,10.27s20.43,1.67,22.83,15.64l1.4,12L304,138.13,265.82,183.2,140,184.3l-25-41.92-62.57.55L41.34,167.34Z"/><path class="cls-1" d="M99,13.78l-11.52.1.34,38.67,25.4-.22L113,28.84a6.27,6.27,0,0,0-1.9-4.44L101,14.59A2.82,2.82,0,0,0,99,13.78Zm-9.89,7.08,0-5.28L98,15.5a2.85,2.85,0,0,1,2,.82l4.48,4.4Z"/><g class="cls-6"><path d="M99,13.78l-11.52.1.34,38.67,25.4-.22L113,28.84a6.27,6.27,0,0,0-1.9-4.44L101,14.59A2.82,2.82,0,0,0,99,13.78Zm-9.89,7.08,0-5.28L98,15.5a2.85,2.85,0,0,1,2,.82l4.48,4.4Z"/></g><path class="cls-1" d="M92.33,13.84l-8.53.07A2.89,2.89,0,0,0,81,16.81l.32,35.8,25.39-.23-.2-23.08a7.23,7.23,0,0,0-2.19-5.12l-9.71-9.45A3.15,3.15,0,0,0,92.33,13.84Zm-9.77,7.08,0-2.41a2.87,2.87,0,0,1,2.85-2.9l5.94,0a3.16,3.16,0,0,1,2.25.91L98,20.78Z"/><path class="cls-1" d="M105.8,20.73l1.48-1.49a1.3,1.3,0,0,1,1.21-.37,3.92,3.92,0,0,1,3.34,3.58,1.3,1.3,0,0,1-.29.84l-1.22,1.54a2.18,2.18,0,0,1-2.57.65,4.62,4.62,0,0,1-2.36-2.28A2.18,2.18,0,0,1,105.8,20.73Z"/><path class="cls-4" d="M98.18,45.47a10.26,10.26,0,0,1-.06-1.2c0-.82-.06-1.9-.1-3.22C98,38.3,97.86,34.46,97.81,30l.24.24-8.84.1c-.06.05.48-.5.25-.26h0v1.09c0,.36,0,.73,0,1.09,0,.72,0,1.44,0,2.14,0,1.41,0,2.77,0,4.08,0,2.61,0,5,0,7.09l-.2-.2,6.4,0,1.79,0,.65,0a2.19,2.19,0,0,1-.57.05l-1.75.07-6.52.16h-.2v-.2c0-2.09-.07-4.48-.11-7.08,0-1.32,0-2.68,0-4.08,0-.71,0-1.42,0-2.15,0-.36,0-.72,0-1.09V30.06h0l.26-.26,8.85-.06h.24V30c0,4.59,0,8.5,0,11.24,0,1.3,0,2.36,0,3.17A6.59,6.59,0,0,1,98.18,45.47Z"/><path class="cls-4" d="M89.41,30.09a16.18,16.18,0,0,1-3.18-2.63,16,16,0,0,1-2.82-3,16.94,16.94,0,0,1,3.18,2.64A16.52,16.52,0,0,1,89.41,30.09Z"/><path class="cls-4" d="M103.22,24.63a13.65,13.65,0,0,1-2.45,2.92A14.26,14.26,0,0,1,98,30.1a13.75,13.75,0,0,1,2.45-2.91A14.6,14.6,0,0,1,103.22,24.63Z"/><path class="cls-4" d="M89.6,45.15a22.06,22.06,0,0,1-2.89,3A22.44,22.44,0,0,1,83.63,51a13.75,13.75,0,0,1,2.71-3.18A14.28,14.28,0,0,1,89.6,45.15Z"/><path class="cls-4" d="M104.29,51a14.59,14.59,0,0,1-3.51-2.59,14.62,14.62,0,0,1-3-3.19A25.71,25.71,0,0,1,101.13,48,25.81,25.81,0,0,1,104.29,51Z"/><path class="cls-4" d="M111.57,22.64c0,.06-.33.24-.94.2a4.15,4.15,0,0,1-2.16-.81A2.71,2.71,0,0,1,107.4,20c0-.63.26-.95.31-.92s0,.37.05.89a2.78,2.78,0,0,0,1,1.69,5.17,5.17,0,0,0,1.9.85C111.21,22.6,111.55,22.56,111.57,22.64Z"/><rect class="cls-1" x="131.71" y="25.86" width="67.02" height="25.79" transform="translate(-0.33 1.45) rotate(-0.5)"/><g class="cls-6"><rect x="176.75" y="25.66" width="21.98" height="25.79" transform="translate(-0.33 1.65) rotate(-0.5)"/></g><path class="cls-4" d="M198.67,31.4c0,.14-15,.39-33.62.55s-33.62.18-33.62,0,15-.39,33.62-.56S198.67,31.25,198.67,31.4Z"/><rect class="cls-5" x="135.42" y="29.47" width="4.3" height="7.23" transform="translate(-0.28 1.21) rotate(-0.5)"/><rect class="cls-5" x="159.05" y="29.27" width="4.3" height="7.23" transform="translate(-0.28 1.42) rotate(-0.5)"/><rect class="cls-3" x="121.27" y="0.22" width="54.3" height="25.79" rx="2.53" transform="translate(-0.11 1.3) rotate(-0.5)"/><path class="cls-4" d="M152.21,6.07c0,.15-5.84.32-13,.38s-13,0-13.06-.15,5.84-.31,13-.37S152.21,5.93,152.21,6.07Z"/><path class="cls-4" d="M152.24,9.82c0,.14-5.84.31-13,.37s-13,0-13-.14,5.84-.31,13-.38S152.24,9.67,152.24,9.82Z"/><path class="cls-4" d="M152.28,13.56c0,.15-5.84.31-13.05.38s-13,0-13-.15,5.84-.31,13-.37S152.28,13.42,152.28,13.56Z"/><path class="cls-4" d="M152.31,17.31c0,.14-5.84.31-13.05.37s-13,0-13-.15,5.84-.31,13-.37S152.31,17.16,152.31,17.31Z"/><path class="cls-4" d="M152.34,21.05c0,.14-5.84.31-13,.37s-13.05,0-13.05-.14,5.83-.31,13-.38S152.34,20.91,152.34,21.05Z"/><circle class="cls-3" cx="87.42" cy="188.94" r="35.99" transform="translate(-7.27 3.54) rotate(-2.22)"/><path class="cls-3" d="M51.43,188.64v.09a36,36,0,0,0,72,.41v-.09Z"/><path class="cls-5" d="M62.15,188.79a25.27,25.27,0,1,0,25.41-25.12A25.26,25.26,0,0,0,62.15,188.79Z"/><path class="cls-7" d="M87.56,163.67a25.27,25.27,0,0,0-25.41,25.12l50.53.29A25.26,25.26,0,0,0,87.56,163.67Z"/><path class="cls-4" d="M72,188.85a15.39,15.39,0,1,0,15.47-15.3A15.39,15.39,0,0,0,72,188.85Z"/><path class="cls-3" d="M51.89,181.06s-.51,3.27-1.23,3.48l-3.19,1,0,3.09s2.79.49,3.11,2.24.68,3.3.68,3.3l4.58-4.06Z"/><path class="cls-3" d="M61.73,164.19A16.54,16.54,0,0,1,58,165.82a22.36,22.36,0,0,1-3.32-.32l-1.14,2.88s2.4,1.5,2,3.25-.62,3.3-.62,3.3l5.77-2Z"/><path class="cls-3" d="M69.54,157.87a16.43,16.43,0,0,1-4.08.46,21.27,21.27,0,0,1-3.08-1.26l-1.93,2.42s1.86,2.14,1,3.71-1.54,3-1.54,3L66,165.9Z"/><path class="cls-3" d="M78.77,155.55a16.41,16.41,0,0,1-4-1,22.35,22.35,0,0,1-2.45-2.26l-2.65,1.6s1,2.65-.34,3.82S66.85,160,66.85,160l5.83,1.87Z"/><path class="cls-3" d="M87.88,153.33A16.6,16.6,0,0,1,84,151.9a22.62,22.62,0,0,1-2.18-2.52L79,150.67s.69,2.75-.77,3.76-2.73,2-2.73,2l5.58,2.51Z"/><path class="cls-3" d="M96.36,155.64a16.45,16.45,0,0,1-3.07-2.73,22,22,0,0,1-1.11-3.14l-3.09.17s-.35,2.81-2.09,3.22-3.25.83-3.25.83L88,158.37Z"/><path class="cls-3" d="M105.21,158a16.68,16.68,0,0,1-2.55-3.22,22.72,22.72,0,0,1-.56-3.28L99,151.15s-.83,2.71-2.61,2.82-3.35.26-3.35.26l3.47,5.05Z"/><path class="cls-3" d="M113.15,163.1a16.55,16.55,0,0,1-1.89-3.64,21.76,21.76,0,0,1,.07-3.33l-3-.93s-1.33,2.5-3.1,2.27-3.34-.37-3.34-.37l2.46,5.61Z"/><path class="cls-3" d="M118.49,170.93a16.36,16.36,0,0,1-.57-4.07,21.27,21.27,0,0,1,1.18-3.11l-2.48-1.86s-2.08,1.92-3.67,1.11-3-1.47-3-1.47l.45,6.11Z"/><path class="cls-3" d="M121.06,180.52a16.67,16.67,0,0,1,1.39-3.87,21.93,21.93,0,0,1,2.49-2.21l-1.33-2.79s-2.74.72-3.77-.73-2-2.7-2-2.7l-2.44,5.61Z"/><path class="cls-3" d="M122.57,189.18a16.43,16.43,0,0,1,1.93-3.63,21.79,21.79,0,0,1,2.78-1.83l-.91-3s-2.81.33-3.62-1.26-1.59-3-1.59-3l-3.23,5.2Z"/><path class="cls-3" d="M55.54,171.63s-1.57,3.22-2.32,3.28l-3.31.28-.61,3s2.63,1.05,2.59,2.83,0,3.36,0,3.36l5.31-3Z"/><path class="cls-3" d="M123,197.61s.5-3.27,1.23-3.48l3.18-1,0-3.09s-2.79-.49-3.12-2.24-.67-3.3-.67-3.3L119,188.61Z"/><path class="cls-3" d="M113.1,214.48a16.68,16.68,0,0,1,3.78-1.63,22.34,22.34,0,0,1,3.31.32l1.15-2.87s-2.4-1.51-2-3.26.62-3.3.62-3.3l-5.78,2Z"/><path class="cls-3" d="M105.29,220.8a16.46,16.46,0,0,1,4.09-.46,22.49,22.49,0,0,1,3.08,1.26l1.92-2.42s-1.86-2.14-1-3.7,1.55-3,1.55-3l-6.12.28Z"/><path class="cls-3" d="M96.07,223.12a16.56,16.56,0,0,1,4,1,21.5,21.5,0,0,1,2.45,2.25l2.65-1.6s-1-2.65.34-3.82,2.49-2.26,2.49-2.26l-5.83-1.87Z"/><path class="cls-3" d="M87,225.34a16.44,16.44,0,0,1,3.85,1.43A21.59,21.59,0,0,1,93,229.29L95.8,228s-.7-2.75.77-3.76,2.73-2,2.73-2l-5.59-2.52Z"/><path class="cls-3" d="M78.48,223a16.32,16.32,0,0,1,3.06,2.74,21.56,21.56,0,0,1,1.11,3.14l3.09-.18s.36-2.81,2.09-3.22,3.26-.83,3.26-.83l-4.28-4.38Z"/><path class="cls-3" d="M69.63,220.66a16.68,16.68,0,0,1,2.55,3.22,22.47,22.47,0,0,1,.55,3.29l3.08.35s.83-2.71,2.61-2.82,3.35-.26,3.35-.26l-3.47-5Z"/><path class="cls-3" d="M61.68,215.57a16.46,16.46,0,0,1,1.9,3.64,21.76,21.76,0,0,1-.07,3.33l2.95.93s1.33-2.5,3.09-2.27,3.35.37,3.35.37L70.44,216Z"/><path class="cls-3" d="M56.35,207.74a16.86,16.86,0,0,1,.57,4.07,22.5,22.5,0,0,1-1.18,3.11l2.47,1.86s2.09-1.92,3.68-1.11,3,1.47,3,1.47L64.47,211Z"/><path class="cls-3" d="M53.77,198.15A16.51,16.51,0,0,1,52.39,202a21.93,21.93,0,0,1-2.49,2.21L51.22,207s2.74-.72,3.77.73,2,2.71,2,2.71l2.45-5.62Z"/><path class="cls-3" d="M52.26,189.49a16.28,16.28,0,0,1-1.92,3.63A21.74,21.74,0,0,1,47.55,195l.91,3s2.82-.33,3.63,1.26,1.59,3,1.59,3l3.23-5.2Z"/><path class="cls-3" d="M119.3,207s1.56-3.22,2.31-3.28l3.32-.28.61-3s-2.63-1.05-2.59-2.83,0-3.36,0-3.36l-5.32,3Z"/><circle class="cls-3" cx="328.17" cy="186.82" r="35.99" transform="translate(-7.01 12.88) rotate(-2.22)"/><path class="cls-3" d="M292.19,186.53s0,.06,0,.09a36,36,0,0,0,72,.41s0-.06,0-.09Z"/><path class="cls-5" d="M302.9,186.68a25.27,25.27,0,1,0,25.41-25.12A25.27,25.27,0,0,0,302.9,186.68Z"/><path class="cls-7" d="M328.31,161.56a25.27,25.27,0,0,0-25.41,25.12l50.53.29A25.26,25.26,0,0,0,328.31,161.56Z"/><path class="cls-4" d="M312.78,186.74a15.39,15.39,0,1,0,15.48-15.31A15.39,15.39,0,0,0,312.78,186.74Z"/><path class="cls-3" d="M292.64,179s-.51,3.27-1.23,3.48l-3.19,1,0,3.09s2.79.49,3.11,2.24.68,3.3.68,3.3l4.58-4.07Z"/><path class="cls-3" d="M302.48,162.08a16.19,16.19,0,0,1-3.77,1.62,21.32,21.32,0,0,1-3.32-.31l-1.14,2.87s2.4,1.51,2,3.26-.62,3.3-.62,3.3l5.78-2Z"/><path class="cls-3" d="M310.29,155.76a16.43,16.43,0,0,1-4.08.46,22.49,22.49,0,0,1-3.08-1.26l-1.93,2.42s1.87,2.14,1,3.7-1.55,3-1.55,3l6.12-.28Z"/><path class="cls-3" d="M319.52,153.44a16.56,16.56,0,0,1-4-1,21.5,21.5,0,0,1-2.45-2.25l-2.65,1.6s1,2.65-.34,3.82-2.49,2.26-2.49,2.26l5.83,1.87Z"/><path class="cls-3" d="M328.64,151.22a16.63,16.63,0,0,1-3.86-1.43,22.3,22.3,0,0,1-2.17-2.52l-2.82,1.29s.7,2.75-.77,3.76-2.73,2-2.73,2l5.58,2.52Z"/><path class="cls-3" d="M337.11,153.53a16.32,16.32,0,0,1-3.06-2.74,21.56,21.56,0,0,1-1.11-3.14l-3.09.18s-.36,2.81-2.09,3.22-3.26.83-3.26.83l4.28,4.38Z"/><path class="cls-3" d="M346,155.9a16.68,16.68,0,0,1-2.55-3.22,22.47,22.47,0,0,1-.55-3.29l-3.08-.35s-.83,2.71-2.61,2.81-3.35.27-3.35.27l3.47,5Z"/><path class="cls-3" d="M353.91,161a16.36,16.36,0,0,1-1.9-3.65,21.66,21.66,0,0,1,.07-3.32l-2.95-.93s-1.33,2.5-3.09,2.27-3.35-.37-3.35-.37l2.46,5.61Z"/><path class="cls-3" d="M359.24,168.82a16.36,16.36,0,0,1-.57-4.07,22.5,22.5,0,0,1,1.18-3.11l-2.48-1.86s-2.08,1.92-3.67,1.11-3-1.47-3-1.47l.45,6.11Z"/><path class="cls-3" d="M361.81,178.41a16.67,16.67,0,0,1,1.39-3.87,21.93,21.93,0,0,1,2.49-2.21l-1.33-2.8s-2.73.73-3.76-.72-2-2.71-2-2.71l-2.45,5.62Z"/><path class="cls-3" d="M363.32,187.06a16.66,16.66,0,0,1,1.93-3.63,22.61,22.61,0,0,1,2.78-1.82l-.91-3s-2.81.33-3.62-1.26-1.59-3-1.59-3l-3.23,5.21Z"/><path class="cls-3" d="M296.29,169.52s-1.57,3.22-2.31,3.28l-3.32.28-.61,3s2.63,1,2.59,2.83,0,3.36,0,3.36l5.31-3Z"/><path class="cls-3" d="M363.7,195.5s.51-3.27,1.23-3.48l3.19-1,0-3.09s-2.79-.49-3.12-2.24-.67-3.3-.67-3.3l-4.58,4.06Z"/><path class="cls-3" d="M353.86,212.37a16.54,16.54,0,0,1,3.77-1.63,22.36,22.36,0,0,1,3.32.32l1.14-2.88s-2.4-1.5-2-3.25.62-3.3.62-3.3l-5.78,2Z"/><path class="cls-3" d="M346.05,218.69a16.43,16.43,0,0,1,4.08-.46,21.27,21.27,0,0,1,3.08,1.26l1.93-2.42s-1.87-2.14-1-3.71,1.55-3,1.55-3l-6.12.28Z"/><path class="cls-3" d="M336.82,221a16.56,16.56,0,0,1,4,1,22.35,22.35,0,0,1,2.45,2.26l2.65-1.6s-1-2.65.34-3.82,2.49-2.26,2.49-2.26l-5.83-1.87Z"/><path class="cls-3" d="M327.7,223.23a16.63,16.63,0,0,1,3.86,1.43,22.3,22.3,0,0,1,2.17,2.52l2.82-1.29s-.7-2.75.77-3.76,2.73-2,2.73-2l-5.58-2.51Z"/><path class="cls-3" d="M319.23,220.91a16.32,16.32,0,0,1,3.06,2.74,22,22,0,0,1,1.11,3.14l3.09-.17s.36-2.81,2.09-3.22,3.26-.84,3.26-.84l-4.28-4.37Z"/><path class="cls-3" d="M310.38,218.55a16.68,16.68,0,0,1,2.55,3.22,22.39,22.39,0,0,1,.55,3.28l3.08.36s.83-2.71,2.61-2.82,3.35-.26,3.35-.26l-3.47-5.05Z"/><path class="cls-3" d="M302.43,213.46a16.46,16.46,0,0,1,1.9,3.64,21.76,21.76,0,0,1-.07,3.33l2.95.93s1.33-2.5,3.09-2.27,3.35.37,3.35.37l-2.46-5.61Z"/><path class="cls-3" d="M297.1,205.63a16.36,16.36,0,0,1,.57,4.07,22.5,22.5,0,0,1-1.18,3.11l2.48,1.86s2.08-1.92,3.67-1.11,3,1.47,3,1.47l-.45-6.11Z"/><path class="cls-3" d="M294.53,196a16.67,16.67,0,0,1-1.39,3.87,21.93,21.93,0,0,1-2.49,2.21l1.33,2.79s2.73-.72,3.76.73,2,2.7,2,2.7l2.45-5.61Z"/><path class="cls-3" d="M293,187.38a16.66,16.66,0,0,1-1.93,3.63,21.79,21.79,0,0,1-2.78,1.83l.91,3s2.81-.33,3.62,1.26,1.59,3,1.59,3l3.23-5.2Z"/><path class="cls-3" d="M360.05,204.93s1.57-3.22,2.31-3.28l3.32-.28.61-3s-2.63-1.05-2.59-2.83,0-3.36,0-3.36l-5.31,3Z"/><path class="cls-1" d="M28.49,126.7h1a0,0,0,0,1,0,0v22.66a0,0,0,0,1,0,0h-1a6.91,6.91,0,0,1-6.91-6.91v-8.85a6.91,6.91,0,0,1,6.91-6.91Z" transform="translate(-1.21 0.23) rotate(-0.5)"/><g class="cls-8"><path class="cls-9" d="M28.49,126.7h1a0,0,0,0,1,0,0v22.66a0,0,0,0,1,0,0h-1a6.91,6.91,0,0,1-6.91-6.91v-8.85a6.91,6.91,0,0,1,6.91-6.91Z" transform="translate(-1.21 0.23) rotate(-0.5)"/></g><path class="cls-3" d="M58.5,58.62s2.06,2.1,1.6,6.87c-.32,3.31-7.44,24.63-11.77,37.38A15,15,0,0,1,35,113l-3.1.18Z"/><path class="cls-4" d="M208.75,51.34c-.15.09-1.54-1.8-3.92-5.31l-4.29-6.43-2.64-4A11.33,11.33,0,0,0,194.44,32a10.91,10.91,0,0,0-5.11-1.76c-.9-.07-2,0-3.07,0l-3.28,0-14.23.07-32.59,0L103.56,30l-14.22-.17-3.29-.05h-.8l-.73,0A13.41,13.41,0,0,0,83.1,30a11.19,11.19,0,0,0-4.9,2.27,11.35,11.35,0,0,0-3.06,4L73,40.5l-3.55,6.86c-2,3.75-3.15,5.79-3.31,5.71s.7-2.26,2.4-6.15c.87-1.94,1.92-4.31,3.15-7.05l2-4.39A13,13,0,0,1,77,30.85,12.85,12.85,0,0,1,82.71,28a15.44,15.44,0,0,1,1.68-.24l.87,0h.8l3.28,0,14.23-.07,32.6,0,32.59.22L183,28l3.28.05c1.08,0,2.09,0,3.25.11a12.67,12.67,0,0,1,9.78,6.49l2.48,4.14,3.91,6.66C207.8,49.16,208.9,51.24,208.75,51.34Z"/><path class="cls-4" d="M202.55,41.44a1.44,1.44,0,0,1-.34,0l-1,0-3.86.08-14.19.21-46.8.47-46.82.32-14.19,0H71.5l-1,0-.34,0,.34,0,1,0,3.85-.08,14.19-.2,46.81-.48,46.81-.32,14.19,0,3.86,0h1A1.44,1.44,0,0,1,202.55,41.44Z"/><path class="cls-4" d="M94.66,53.16c-.14,0-.47-5.27-.72-11.79s-.34-11.8-.2-11.81.47,5.27.72,11.79S94.8,53.15,94.66,53.16Z"/><path class="cls-4" d="M139.29,54c-.15,0-.53-5.5-.85-12.28s-.47-12.3-.32-12.31.52,5.49.84,12.28S139.43,54,139.29,54Z"/><path class="cls-4" d="M184.63,51.88c-.14,0-.85-5.15-1.57-11.53S181.87,28.77,182,28.76s.84,5.14,1.57,11.53S184.77,51.86,184.63,51.88Z"/><path class="cls-4" d="M364.64,114.5a4.94,4.94,0,0,0-4.88,5.2c.52,9.7,1.53,30.5,2.12,40.12a5.7,5.7,0,0,0,6.06,5.35l15.82.05a1,1,0,0,0,1-1.05l-.09-10.35a1,1,0,0,0-1-1l-11.29.13-2.75-33.62a4.94,4.94,0,0,0-5-4.8Z"/><path class="cls-4" d="M387.79,132.35c-.55.28-15.48,1.19-15,9.18S389,149,389,149Z"/><polygon class="cls-3" points="219.44 61.06 242.62 102.58 248.27 103.93 222.28 61.03 219.44 61.06"/><polygon class="cls-4" points="227.96 116.75 242.93 116.62 233.99 102.11 229.87 99.14 225.33 104.77 230.08 110.41 227.96 116.75"/><path class="cls-1" d="M212.45,112.6l15.24.29c2,0,3.56-3.63,3.46-8h0c-.09-3.92-1.48-7.21-3.27-7.76L212.3,95.45Z"/><path class="cls-4" d="M242.93,116.62a4.41,4.41,0,0,1,0,.48c0,.35,0,.82.08,1.44.06,1.28.15,3.13.26,5.51.21,4.8.51,11.72.87,20.26.09,2.14.19,4.38.28,6.72a21.49,21.49,0,0,1-.65,7.28,20.13,20.13,0,0,1-9.77,12.44,19.38,19.38,0,0,1-8.41,2.32c-3,.1-6,.08-9.07.12l-19.07.18-33.8.28h-.14l-.07-.13-19.44-36.19,0,0v0c0-6.23,0-11.17-.06-14.57,0-1.67,0-3,0-3.87,0-.42,0-.75,0-1s0-.34,0-.34a1.55,1.55,0,0,1,0,.34q0,.36,0,1c0,.9,0,2.2.07,3.87.05,3.4.12,8.33.21,14.57l0-.08,19.58,36.12-.21-.13,33.79-.31,19.07-.17c3.08,0,6.12,0,9.06-.1a19.09,19.09,0,0,0,8.21-2.25,19.71,19.71,0,0,0,9.57-12.14,20.87,20.87,0,0,0,.67-7.15c-.08-2.34-.17-4.58-.24-6.72-.3-8.54-.54-15.46-.71-20.27-.07-2.37-.13-4.23-.17-5.51,0-.61,0-1.09,0-1.43S242.93,116.62,242.93,116.62Z"/><path class="cls-4" d="M356.46,129.84h-.32l-.92-.05-3.55-.28-13-1.14c-11-1-26.18-2.46-42.93-4.34-8.38-.93-16.35-1.9-23.59-2.9-1.81-.24-3.57-.51-5.28-.77s-3.37-.5-5-.79a27.37,27.37,0,0,1-8.62-2.77,17.66,17.66,0,0,1-5.54-5,33.58,33.58,0,0,1-2.9-4.84c-.69-1.38-1.18-2.48-1.5-3.22l-.36-.85a1.61,1.61,0,0,1-.11-.3,1.77,1.77,0,0,1,.16.27c.1.22.23.49.4.83.36.74.88,1.82,1.59,3.18a35.29,35.29,0,0,0,3,4.76,17.5,17.5,0,0,0,5.48,4.86,26.91,26.91,0,0,0,8.51,2.66c1.6.29,3.26.52,5,.77s3.47.51,5.28.74c7.23,1,15.2,1.93,23.58,2.87,16.74,1.87,31.92,3.38,42.91,4.49l13,1.3,3.54.37.92.11Z"/><path class="cls-4" d="M284.18,122.42a51.09,51.09,0,0,1-.31-7.21,48.79,48.79,0,0,1,.21-7.22,51.44,51.44,0,0,1,.31,7.22A48.7,48.7,0,0,1,284.18,122.42Z"/><path class="cls-4" d="M166.86,124.53a1.47,1.47,0,0,1,.4-.06,7.83,7.83,0,0,1,1.18,0,2.24,2.24,0,0,1,1.64.9,2.44,2.44,0,0,1,.31,2.45,3.68,3.68,0,0,1-2.29,2,10.65,10.65,0,0,1-3.42.33l-7.76-.08a6.25,6.25,0,0,1-2.09-.29,2.59,2.59,0,0,1-1.57-1.42,2.26,2.26,0,0,1,.29-2,3.28,3.28,0,0,1,1.51-1.21,10.86,10.86,0,0,1,3.41-.51c1.06,0,2.05-.06,3-.07h4.27a9.51,9.51,0,0,1,1.57,0,1.69,1.69,0,0,1-.4.07c-.27,0-.66.07-1.16.1-1,.07-2.48.12-4.28.17-.9,0-1.89.06-2.94.12a10.88,10.88,0,0,0-3.26.52,2.75,2.75,0,0,0-1.3,1.06,1.79,1.79,0,0,0-.24,1.61,2.16,2.16,0,0,0,1.3,1.15,5.78,5.78,0,0,0,1.93.26l7.77.11a10.25,10.25,0,0,0,3.29-.27,3.36,3.36,0,0,0,2.11-1.71,2.18,2.18,0,0,0-.22-2.17,2.12,2.12,0,0,0-1.46-.87C167.43,124.53,166.86,124.58,166.86,124.53Z"/><rect class="cls-4" x="373.86" y="139.85" width="2.6" height="16" transform="translate(-1.28 3.29) rotate(-0.5)"/><path class="cls-3" d="M386.11,148.94a63.1,63.1,0,0,1-1.14-8,64.27,64.27,0,0,1-.63-8.09,62.39,62.39,0,0,1,1.14,8A64.37,64.37,0,0,1,386.11,148.94Z"/><g class="cls-8"><path d="M191.79,186.66c2.24-4-.43-9.77-4.9-10.64-2.51-.49-5.28.33-7.56-.82-3-1.51-3.5-5.44-3.68-8.76s-.74-7.26-3.73-8.73-6.76.71-9.47,2.94-6,4.72-9.37,3.6c-3.6-1.22-5.07-6.13-8.77-7a5.67,5.67,0,0,0-5.84,2.71c-1.21,2-.4,4.4-.85,6.65-.36,1.8,11.57,20.14,11.57,20.14Z"/></g><path class="cls-4" d="M17.09,164.19l.11,13.51a10.13,10.13,0,0,0,10.22,10l14.75-.13s5.28-1,5.24-5.95,2.3-21.38,4.44-25.18,3.65-9.41,11.74-9.48l40.11-.35s7.73.09,11.52,7.21l18.72,29.85a14.22,14.22,0,0,0,12.36,7.35l118.54-1a15.2,15.2,0,0,0,12-6.06l23.73-31.64a18.84,18.84,0,0,1,14.91-7.53l29.24-.26s15,2.42,17.31,15.79l8.58-6.64s-4.8-23.45-29.72-23.42c-18.4,0-29.88.26-29.88.26s-12.23-1.4-22.38,11.06c-8.48,10.41-31.9,41.67-31.9,41.67l-107.28.94-24.59-37.73a21.89,21.89,0,0,0-20.64-12.88l-38.66.34a29.15,29.15,0,0,0-15.25,4.31,28.84,28.84,0,0,0-12.15,15.83l-3.1,10Z"/><g class="cls-8"><path d="M209.93,132.65c-4.63-.32-7.24,4.92-6.78,9.55.25,2.58,1.73,5.26.64,7.62-.83,1.82-2.9,2.69-4.25,4.16a6.85,6.85,0,0,0,.18,9,7.43,7.43,0,0,0,9.09,1c1.7-1.07,2.93-2.8,4.68-3.79,1.94-1.11,4.29-1.2,6.38-2s4.09-2.86,3.46-5c-.55-1.89-2.75-2.68-4.17-4.05-1.69-1.64-2.23-4.12-2.48-6.46s-.34-4.77-1.38-6.88-3.44-3.79-5.7-3.14"/></g><g class="cls-8"><path d="M244.46,130.22a5.84,5.84,0,0,0-.48,11.2c2.87,1,6.37-.28,8.86,1.44,3.22,2.22,2.65,8,6.2,9.62,2.45,1.12,5.3-.58,7-2.63s3.09-4.58,5.42-5.94c1.93-1.12,4.33-1.28,6.17-2.55a6,6,0,0,0-1.6-10.74c-4-1.28-8.62,1.8-12.49.12-2.37-1-3.68-3.51-5.24-5.57s-4.08-4-6.51-3.12c-3.66,1.29-4,7.68-7.85,8"/></g><g class="cls-8"><path d="M250.05,159.9a3.84,3.84,0,0,0-5.44,1.89,4,4,0,0,0,2.95,5,4.12,4.12,0,0,0,4.61-3.63,4.27,4.27,0,0,0-4-4.38"/></g><g class="cls-8"><path d="M222,183.18c-.42-2.13,1.49-4.14,3.59-4.66s4.3,0,6.39.6,4.31,1.1,6.39.53c1.5-.41,2.86-1.37,4.4-1.45a5.39,5.39,0,0,1,4.14,2,16,16,0,0,1,2.36,4.09"/></g><g class="cls-8"><path d="M342,116c-.91,3-3.45,6.42-6.34,7.71a11.2,11.2,0,0,1-9.19-.09c-3-1.4-5.52-4.2-8.83-4.26-2.26,0-4.32,1.24-6.55,1.61a8.42,8.42,0,0,1-7.9-3.12,6.67,6.67,0,0,1-1-7.43s33.91,4.1,35.51,4.43C338.91,115.09,342,116,342,116Z"/></g><g class="cls-8"><path d="M277.34,107.43a3.84,3.84,0,0,1-.64,4,3.75,3.75,0,0,1-3.84.94c-1.86-.64-3.15-2.74-5.12-2.76-1.7,0-3,1.51-4.51,2.2a4.85,4.85,0,0,1-5.28-1A5.61,5.61,0,0,1,257,105Z"/></g><g class="cls-8"><path d="M176.23,116.67a6.38,6.38,0,0,1-5.63,7.49c-2.18.11-4.23-.94-6.31-1.6s-4.62-.86-6.2.65c-1.94,1.84-1.34,5-.85,7.62s.32,6.06-2.16,7.06c-1.87.74-4-.44-5.41-1.82s-2.76-3.09-4.66-3.73c-3-1-6.09.95-9.19,1.55a10.68,10.68,0,0,1-11.73-14.95l.35-1.28Z"/></g><g class="cls-8"><path d="M37.08,118.49c-2.16,2.56-2.42,7.77-.73,10.66A8.38,8.38,0,0,0,44.94,133c2.33-.45,4.42-1.89,6.78-2,2.7-.16,5.17,1.39,7.77,2.18s6.1.33,7-2.22c.72-2.06-.46-4.91,1.31-6.18,1.4-1,3.31,0,5,0a3.85,3.85,0,0,0,2.56-6.62Z"/></g><path class="cls-4" d="M210.74,39.47h0a8.63,8.63,0,0,0,7.34,8.13l17.17,2.6-3-26.1-16.3,7A8.65,8.65,0,0,0,210.74,39.47Z"/><rect class="cls-4" x="211.88" y="41.42" width="2.83" height="14.37" transform="translate(-0.42 1.87) rotate(-0.5)"/><path class="cls-5" d="M2.07,119.78a7.14,7.14,0,0,1-.13-1.32c-.05-1-.11-2.17-.18-3.61-.13-3-.27-7.27-.4-11.92-.05-2.34-.13-4.55-.13-6.58A14.54,14.54,0,0,1,2.07,91a7.53,7.53,0,0,1,2.08-3A5,5,0,0,1,5,87.44c.2-.1.31-.15.32-.13s-.4.26-1,.85a7.92,7.92,0,0,0-1.86,3C1.3,94,1.83,98.27,1.88,102.91s.21,8.87.24,11.93c0,1.44,0,2.66,0,3.61A6.06,6.06,0,0,1,2.07,119.78Z"/><path class="cls-5" d="M22.79,138.58a3.75,3.75,0,0,1-.63-1.69,8.42,8.42,0,0,1,.39-4.32A8.33,8.33,0,0,1,25,129a3.7,3.7,0,0,1,1.56-.9c0,.08-.54.42-1.31,1.17a9.3,9.3,0,0,0-2.74,7.57C22.64,137.9,22.87,138.54,22.79,138.58Z"/><path class="cls-5" d="M107,135.85a.9.9,0,0,1-.26,0h-3.81l-11.12-.06-16.48-.15-4.76-.06c-1.62,0-3.27,0-5,.1a36.79,36.79,0,0,0-10.15,2,20.46,20.46,0,0,0-8,5.42,30.16,30.16,0,0,0-5.09,7.61c-2.52,5.33-3.72,10.6-4.85,15l0,.14h-.14l-12.3.42-3.35.09h-.87a1,1,0,0,1-.3,0,1.36,1.36,0,0,1,.29,0l.87-.06,3.35-.19,12.29-.59-.18.14c1.1-4.42,2.26-9.72,4.79-15.13A30.54,30.54,0,0,1,47,142.78a20.94,20.94,0,0,1,8.23-5.56,37,37,0,0,1,10.3-2c1.69-.11,3.36-.11,5-.08l4.76.07,16.48.26,11.11.23,3,.09.79,0Z"/><path class="cls-5" d="M142.55,137.43a11.9,11.9,0,0,1-.44-2.6c-.2-1.62-.39-3.87-.49-6.35s-.08-4.74,0-6.37a11.53,11.53,0,0,1,.24-2.63,15.22,15.22,0,0,1,.13,2.63c0,1.63.06,3.87.16,6.35s.23,4.71.33,6.34A13.93,13.93,0,0,1,142.55,137.43Z"/><path class="cls-5" d="M139.88,58.94c.14,0,.58,12.54,1,28s.6,28,.46,28-.58-12.53-1-28S139.74,59,139.88,58.94Z"/><path class="cls-5" d="M204.94,54l-.37,0-1.09,0-4.18.09-15.36.23L133.23,55l-50.71.43-8.76,0a41.65,41.65,0,0,0-6.58.29,9.37,9.37,0,0,0-3.85,1.44c-.77.54-1.09.95-1.12.92a5.22,5.22,0,0,1,1.06-1,9.17,9.17,0,0,1,3.88-1.55,40,40,0,0,1,6.61-.38l8.76-.13,50.71-.58,50.7-.43L199.3,54h4.18l1.09,0A1.53,1.53,0,0,1,204.94,54Z"/></g></g></svg>