<svg xmlns="http://www.w3.org/2000/svg" xmlns:xlink="http://www.w3.org/1999/xlink" viewBox="0 0 1470 423.64"><defs><style>.cls-1{fill:url(#linear-gradient);}.cls-2{fill:#d6ffff;}.cls-3{fill:azure;}</style><linearGradient id="linear-gradient" x1="735" y1="423.64" x2="735" gradientUnits="userSpaceOnUse"><stop offset="0" stop-color="#fff"/><stop offset="1" stop-color="#87ddf4"/></linearGradient></defs><title>ciel</title><g id="Calque_2" data-name="Calque 2"><g id="_ëîé_1" data-name="—ëîé_1"><rect class="cls-1" width="1470" height="423.64"/><path class="cls-2" d="M619,144c0-.34,0-.67,0-1,0-10.1-7.08-18.3-15.81-18.3a14.31,14.31,0,0,0-8.72,3c-3.67-6.72-10.15-11.19-17.53-11.19-8.39,0-15.62,5.78-18.88,14.09a15.06,15.06,0,0,0-10.38-4.21,14.72,14.72,0,0,0-4.88.84A10.4,10.4,0,0,0,534,122a10.29,10.29,0,0,0-8.49,4.84,23.75,23.75,0,0,0-4.09-.36c-7.93,0-14.75,3.85-18,9.41a10.05,10.05,0,0,0-5.21-1.47c-5.29,0-9.68,4.17-10.56,9.64Z"/><path class="cls-3" d="M790.88,174.13c0-.29,0-.57,0-.86,0-8.54,6-15.46,13.36-15.46a12.08,12.08,0,0,1,7.37,2.57c3.1-5.69,8.58-9.47,14.81-9.47,7.1,0,13.21,4.89,16,11.91a12.74,12.74,0,0,1,8.77-3.55,12.36,12.36,0,0,1,4.13.71,8.37,8.37,0,0,1,14.61-.41,19.62,19.62,0,0,1,3.46-.3c6.7,0,12.47,3.25,15.2,7.95a8.53,8.53,0,0,1,4.4-1.24,9.33,9.33,0,0,1,8.93,8.15Z"/><path class="cls-2" d="M648.66,141.18a12.15,12.15,0,0,0-22.39,0Z"/><path class="cls-3" d="M1143.16,226.2a11.32,11.32,0,0,0-6.93-4.41,11.33,11.33,0,1,0-18.61-12.62,17.13,17.13,0,0,0-21.14,5.78,12.34,12.34,0,0,0-3.86-.63,12.21,12.21,0,0,0-6.79,2.05,12.23,12.23,0,0,0-6.78-2.05,11.58,11.58,0,0,0-2,.19c0-.06,0-.13,0-.19a12.26,12.26,0,0,0-24.51,0,.92.92,0,0,0,0,.16,11.36,11.36,0,0,0-1.85-.16,12.24,12.24,0,0,0-12.23,11.88Z"/><path class="cls-2" d="M1092.52,71.51a4.52,4.52,0,0,0,.35-1.69c0-5.6-11-10.14-24.52-10.14l-1.32,0a14.69,14.69,0,0,0,1.32-6.1,14.88,14.88,0,0,0-29.75,0c0,.16,0,.31,0,.47a10.27,10.27,0,0,0-3.07-.47,10.14,10.14,0,0,0-10.14,10.14s0,0,0,0c-.84,0-1.69,0-2.54,0-11.57,0-21.26,3.31-23.84,7.77Z"/><path class="cls-2" d="M1317.94,192c-3.6-3.77-10.24-6.3-17.84-6.3a31.62,31.62,0,0,0-8.52,1.14,12.44,12.44,0,0,0-11.85-9.1,12.23,12.23,0,0,0-10,5.26,16.37,16.37,0,0,0-30.93,1.5,29.66,29.66,0,0,0-12.65-2.67c-10,0-18.32,4.36-20.28,10.17Z"/><path class="cls-2" d="M1159.75,83.34a14.88,14.88,0,0,0-29.12,0Z"/><path class="cls-3" d="M1020.08,225.44a8.48,8.48,0,0,0-2.72.45,10.39,10.39,0,0,0-16.39,6.23h27.33A8.39,8.39,0,0,0,1020.08,225.44Z"/><path class="cls-3" d="M755.86,164.66a11.13,11.13,0,0,1,3.62.61,13.87,13.87,0,0,1,21.87,8.3H744.89A11.21,11.21,0,0,1,755.86,164.66Z"/><path class="cls-2" d="M1007.28,139.19c-.65-6.32-7.35-11.29-15.55-11.29a19.32,19.32,0,0,0-3.69.36c0-.12,0-.24,0-.36,0-4.94-5.34-8.94-11.94-8.94a14.52,14.52,0,0,0-7.52,2c-1.1-6.2-7.18-10.95-14.54-10.95a15.85,15.85,0,0,0-9.7,3.22,15.45,15.45,0,0,0-11.6-5c-6.92,0-12.7,4.2-14.29,9.86a30.56,30.56,0,0,0-14-3.15c-10.2,0-18.71,4.3-20.9,10.06a11.35,11.35,0,0,0-19.83,7.55c0,.28,0,.55,0,.83a15.11,15.11,0,0,0-17.45,5.81Z"/><path class="cls-3" d="M742.7,201.15c-2.38-2.49-6.78-4.17-11.8-4.17a21,21,0,0,0-5.64.75,8.24,8.24,0,0,0-7.84-6,8.12,8.12,0,0,0-6.61,3.48,10.82,10.82,0,0,0-20.45,1,19.73,19.73,0,0,0-8.37-1.76c-6.61,0-12.12,2.89-13.42,6.73Z"/></g></g></svg>