<svg xmlns="http://www.w3.org/2000/svg" viewBox="0 0 97.95 194.35"><defs><style>.cls-1{fill:#5ca04d;}.cls-2{fill:#4f933e;}.cls-3{fill:#62b257;}.cls-4{fill:#589b4c;}.cls-5{fill:#725033;}.cls-6{fill:#604129;}</style></defs><title>Fichier 6</title><g id="Calque_2" data-name="Calque 2"><g id="OBJECTS"><path class="cls-1" d="M94.6,128.39c2.29-1.75,4-4.19,3.06-7.25a6.44,6.44,0,0,0-3.82-3.79A9.61,9.61,0,0,0,93.7,113c-1-3.87-2.77-8-6-10.57A10.06,10.06,0,0,0,73.57,104a7.31,7.31,0,0,0-4.9-.86,7.86,7.86,0,0,0-5,3.55,12.86,12.86,0,0,0-14,.26c-4.71,3-7.87,9-7.09,14.33-7.68,3.46-11.09,17.18-9.19,24.24a15.31,15.31,0,0,0,15.88,11.39C50,164.2,56.62,170.1,64.91,170c9.72-.09,16.9-7.07,16.71-15.52a14.46,14.46,0,0,0,6.67-1.74c3.9-2.1,8.07-5.81,9.26-10.21S97.32,132.88,94.6,128.39Z"/><path class="cls-2" d="M49.36,156.86C50,164.2,56.62,170.1,64.91,170c9.72-.09,16.9-7.07,16.71-15.52a14.46,14.46,0,0,0,6.67-1.74c3.9-2.1,8.07-5.81,9.26-10.21a10.51,10.51,0,0,0,.3-1.6c-5.78,3.35-11.21-4.36-11.21-4.36s-2,9.83-10.67,8.83-9.67-15-9.67-15-7.66,2.34-8.1-12.33a24.62,24.62,0,0,1,2.92-12.73,13.29,13.29,0,0,0-11.36,1.53c-4.71,3-7.87,9-7.09,14.33-7.68,3.46-11.09,17.18-9.19,24.24A15.31,15.31,0,0,0,49.36,156.86Z"/><path class="cls-3" d="M58.71,90.09a22.69,22.69,0,0,0-13.88-7,12.91,12.91,0,0,0-2.7,0c-3.85-7.73-16.91-14.57-22.72-4.46a6.89,6.89,0,0,0-4.24-.42c-3.37.81-4,4-3.38,6.86-4.44.6-9.33,5-10.82,8.6-2.4,5.82-.24,14.83,5.2,18.46-2.65,6.15-.63,12.8,5.61,17.75a12,12,0,0,0,13.58.74,7.51,7.51,0,0,0,3.88,3.13,7.39,7.39,0,0,0,5.27-.48,12.26,12.26,0,0,0,5.33,2.9c6.14,1.57,12.52-1.58,16.66-6,5.29-5.67,6.16-13.89,3-19.79C64.07,104.53,64.61,96.58,58.71,90.09Z"/><path class="cls-4" d="M56.5,130.19a18,18,0,0,0,4.67-9.79c-11.47,6.63-16.43-8.28-16.43-8.28s-.84,11.33-13.22,9.65S23,105.08,23,105.08s-5,4-14.33-3.43c-6.83-5.44-4.33-10.89-2-14.4A16.09,16.09,0,0,0,1,93.69c-2.4,5.82-.24,14.83,5.2,18.46-2.65,6.15-.63,12.8,5.61,17.75a12,12,0,0,0,13.58.74,7.51,7.51,0,0,0,3.88,3.13,7.39,7.39,0,0,0,5.27-.48,12.26,12.26,0,0,0,5.33,2.9c.38.09.76.17,1.14.23,1.35,0,2.8,0,4.37,0A20.08,20.08,0,0,0,56.5,130.19Z"/><path class="cls-3" d="M93.89,27.58a18.8,18.8,0,0,0-9.78-9.89c-1-8.83-6.33-16.6-16.18-17.61A18,18,0,0,0,54.59,4.44C52.86,1,49-.73,45.14,1.49A9.11,9.11,0,0,0,41,8c-7.7-2.82-19.13,5.4-22.69,11.25-4.06,6.65-5.05,18-.5,24.87-1.76,2.86-1.42,7.21.3,10.38,1.42,2.6,3.59,5.58,6.71,6a8.21,8.21,0,0,0,4-.45,12.31,12.31,0,0,0,5.27,7.19,13.05,13.05,0,0,0,11.39.92A11.15,11.15,0,0,0,53.22,72a8.88,8.88,0,0,0,7.34-2.93,13.25,13.25,0,0,0,7.29,4.79c5.93,1.48,11.87-2.22,16.07-6.09,5.38-4.95,6.32-10.8,4.33-17.66-.1-.33-.2-.67-.31-1A17.72,17.72,0,0,0,93.89,27.58Z"/><path class="cls-4" d="M60.56,69.07a13.25,13.25,0,0,0,7.29,4.79c5.93,1.48,11.87-2.22,16.07-6.09a15.09,15.09,0,0,0,5.25-10.31A11.8,11.8,0,0,1,80,60.1c-10.33-1-11.33-18-11.33-18s-3.85,11-16.84,6.12-8.5-15.45-8.5-15.45S33.64,38.1,27,26.64c-3.84-6.6.4-13.41,4.68-18-5.63,2.2-11,6.86-13.31,10.57-4.06,6.65-5.05,18-.5,24.87-1.76,2.86-1.42,7.21.3,10.38,1.42,2.6,3.59,5.58,6.71,6a8.21,8.21,0,0,0,4-.45,12.31,12.31,0,0,0,5.27,7.19,13.05,13.05,0,0,0,11.39.92A11.15,11.15,0,0,0,53.22,72,8.88,8.88,0,0,0,60.56,69.07Z"/><path class="cls-5" d="M82,128.17c-3.68,2.73-8.32,4.1-11.49,7.56L70,135.4c2.47-6.68,4.8-13.39,7.33-20.06.18-.47-.59-.79-.81-.34-4.9,9.9-10.07,19.53-14.38,29.71-1.25,2.95-2.62,5.94-4,9-.37-3.08-.75-6.18-1.24-9.24-.74-11-1.38-22-1.85-33.06q-.21-4.77-.37-9.53a35.82,35.82,0,0,1,2.08-13.45,70.07,70.07,0,0,1,3.52-8.17c5.37-10.55,12.56-19.83,15.47-31.5a.3.3,0,0,0-.58-.16,58.34,58.34,0,0,1-7.6,14.29c.06-4.91-1.58-10.59-2.32-14.45-.06-.3-.51-.22-.51.06,0,3.56,0,7.11.22,10.66v.08a20.77,20.77,0,0,1-3.77,12.68,72.33,72.33,0,0,0-6.08,10.19c-.35.72-.67,1.45-1,2.19l-.33-11.34c0-3.24.06-6.48,0-9.72,0-.9,0-1.79,0-2.69.27-5.32.35-10.67,1.34-15.94,1.61-8.66,6-16.42,7.46-25.06a.33.33,0,0,0-.63-.17c-1.6,5.07-4.9,9.25-7,14.09a43.19,43.19,0,0,0-1.92,5.39c-.44-5.27-1.08-10.53-2-15.78-.05-.27-.43-.18-.45.06C50,32,49.81,41,49.77,50a59,59,0,0,0-3.3-4.93c-4.31-5.87-9.72-11.24-14.71-16.54a.11.11,0,0,0-.17.14c2.86,4.41,5.92,8.69,8.87,13.05-3.85-1.88-8.64-1.32-12.85-1.36a.19.19,0,0,0-.05.38c5.35,1.26,11,1.38,14.81,5.63a43.42,43.42,0,0,1,4,5.32C47,53,47.51,54.28,48,55.58c.24.6.44,1.13.63,1.61a113.45,113.45,0,0,1,1.09,15.09C48.3,90,46.24,107.82,45,125.58c-1.1-2.16-2.23-4.31-3.46-6.41a68.76,68.76,0,0,0-3.82-5.83,1.43,1.43,0,0,0-.22-.3c-5.63-7.71-12.4-14.61-17-22.93-.09-.16-.37,0-.3.13,2.25,5.42,5.76,10.1,8.77,15.11.68,1.12,1.34,2.26,2,3.39a17.64,17.64,0,0,0-2.68-1.34A128.15,128.15,0,0,0,15,103.5c-.18,0-.3.22-.13.3,4.15,2,8.38,3.82,12.53,5.81a13,13,0,0,1,2.12,1.31,29.78,29.78,0,0,1,8.21,9.37l.93,1.65c.93,1.67,1.83,3.34,2.71,5a25.5,25.5,0,0,1,2.88,12.82q-.27,6.63-.29,13.26c-1.44,13.6-1.13,27.63-.33,41H65.27c-.08-.17-.15-.36-.22-.53-1.61-9.59-3.84-19.11-5.4-28.72v0a7,7,0,0,1,.39-3.65c2-5,3.75-10.12,5.75-14.94l0-.07a26.61,26.61,0,0,1,8.55-11l1-.76c2.42-1.87,4.4-4.19,6.8-6C82.27,128.27,82.14,128.1,82,128.17Z"/><path class="cls-6" d="M58.2,194.35H43.58c-.8-13.42-1.11-27.45.33-41q0-6.63.29-13.26a25.5,25.5,0,0,0-2.88-12.82c-.88-1.69-1.78-3.36-2.71-5l-.93-1.65a29.78,29.78,0,0,0-8.21-9.37,13,13,0,0,0-2.12-1.31c-4.15-2-8.38-3.82-12.53-5.81-.17-.08-.05-.34.13-.3a128.15,128.15,0,0,1,13.34,3.9A17.64,17.64,0,0,1,31,109c-.66-1.13-1.32-2.27-2-3.39-3-5-6.52-9.69-8.77-15.11-.07-.18.21-.29.3-.13.71,1.29,1.49,2.54,2.3,3.77a57.41,57.41,0,0,0,6.25,10.14c5.42,6.66,8.59,11.25,10.75,15.33s5.67,12.25,5.67,12.25a43.62,43.62,0,0,1-.48-6h0c1.24-17.76,3.3-35.55,4.75-53.3a113.45,113.45,0,0,0-1.09-15.09c-.19-.48-.39-1-.63-1.61-.52-1.3-1.08-2.59-1.67-3.87a43.42,43.42,0,0,0-4-5.32c-3.85-4.25-9.46-4.37-14.81-5.63a.19.19,0,0,1,.05-.38c4.21,0,9-.52,12.85,1.36-3-4.36-6-8.64-8.87-13a.11.11,0,0,1,.17-.14l1.38,1.45c3.15,4,7.73,9.77,8.91,11.43,1.84,2.59,6.16,8.25,8,12.84l-.28-4.47c0-8.68.21-17.36.83-26,.36,5.66.84,13.4,1,18,.33,7.83.5,36.5-.5,44.16s-3.5,40-1,63C51.75,164,55.64,182.82,58.2,194.35ZM54.15,84.26v0Zm7.65-9.74c3-3.84,3.92-7.59,4.42-11.84.44-3.76-1-11.55-1.24-14.46a.26.26,0,0,0-.21.24c0,3.56,0,7.11.22,10.66v.08a20.77,20.77,0,0,1-3.77,12.68,72.33,72.33,0,0,0-6.08,10.19c-.35.72-.67,1.45-1,2.19l.49,4S58.8,78.35,61.8,74.52Zm8.47,61ZM82,128.17c-3.68,2.73-8.32,4.1-11.49,7.56l-.28-.18,0,0L70,135.4c2.47-6.68,4.8-13.39,7.33-20.06a.37.37,0,0,0,0-.31c-1.93,4.43-6.81,15.69-8.53,20.32-2.16,5.83-7.66,18.33-7.66,18.33s-1.67,6.59-1.56,9.75v0a7,7,0,0,1,.46-2.3c2-5,3.75-10.12,5.75-14.94l0-.07a26.61,26.61,0,0,1,8.55-11l1-.76c2.42-1.87,4.4-4.19,6.8-6C82.27,128.27,82.14,128.1,82,128.17Z"/></g></g></svg>