<svg xmlns="http://www.w3.org/2000/svg" viewBox="0 0 150.99 138.8"><defs><style>.cls-1{fill:#97c44e;}.cls-2{fill:#84a33a;}.cls-3{fill:#725033;}.cls-4{fill:#604129;}</style></defs><title>Fichier 5</title><g id="Calque_2" data-name="Calque 2"><g id="OBJECTS"><path class="cls-1" d="M143.76,51a19.35,19.35,0,0,0-4.23-2.72c3.84-7.62,1-17.79-6.23-22.87a19.21,19.21,0,0,0-15.7-2.61A7.62,7.62,0,0,0,113,16.92a8.05,8.05,0,0,0-5.57-.17C105.6,10,101.53,4.05,94.76,1.3,87.07-1.83,79,1,73,6.33,70.07,3.24,66.31,1.17,62,2.72a15.37,15.37,0,0,0-8.48,7.61c-5.69-1.8-12.37-.86-16.77,3.12-5.56,5-8.1,11.9-8.53,19.05a5.77,5.77,0,0,0-6.81.38c-3.06,2.35-3.25,5.9-2.14,9.18A3,3,0,0,0,18.8,42c-4.55-.23-9.39,3.31-12.09,6.63a18,18,0,0,0-2.44,19c-7.4,8.71-5,23.3,5.65,28.41,7.34,3.54,16.27,2.91,22.52-1.41a13.26,13.26,0,0,0,6.23,6.21c4.71,2.19,9.07.43,11.79-3.11,1.21,5.2,8.8,7.52,13.54,7.13a15,15,0,0,0,9.72-5.25,23.41,23.41,0,0,0,15.77,3.53,18.12,18.12,0,0,0,11.25-6.5,4.7,4.7,0,0,0,5,2.74,7,7,0,0,0,5-4,18.5,18.5,0,0,0,13,1.06,16.35,16.35,0,0,0,8.55-6.69,13.61,13.61,0,0,0,4.36-.73c7.43-2.51,12.71-10.83,14-18.23A21.41,21.41,0,0,0,143.76,51Z"/><path class="cls-2" d="M150.67,70.76a21.34,21.34,0,0,0,.28-2.52c-5.06,5.51-14.17,2.15-14.17,2.15s-2.62,11-15.63,10.83-16-19.5-16-19.5-4.38,12.8-15.58,7.36S78.42,49.7,78.42,49.7s-3.93,7.69-12,8S54,43.72,54,43.72s-13.53,4-17.29-10.83c-2.5-9.85,4.09-18.45,9-23.31a16,16,0,0,0-8.93,3.87c-5.56,5-8.1,11.9-8.53,19.05a5.77,5.77,0,0,0-6.81.38c-3.06,2.35-3.25,5.9-2.14,9.18A3,3,0,0,0,18.8,42c-4.55-.23-9.39,3.31-12.09,6.63a18,18,0,0,0-2.44,19c-7.4,8.71-5,23.3,5.65,28.41,7.34,3.54,16.27,2.91,22.52-1.41a13.26,13.26,0,0,0,6.23,6.21c4.71,2.19,9.07.43,11.79-3.11,1.21,5.2,8.8,7.52,13.54,7.13a15,15,0,0,0,9.72-5.25,23.41,23.41,0,0,0,15.77,3.53,18.12,18.12,0,0,0,11.25-6.5,4.7,4.7,0,0,0,5,2.74,7,7,0,0,0,5-4,18.5,18.5,0,0,0,13,1.06,16.35,16.35,0,0,0,8.55-6.69,13.61,13.61,0,0,0,4.36-.73C144.11,86.48,149.39,78.16,150.67,70.76Z"/><path class="cls-3" d="M57.4,138.72H98.66c-8.5-6.81-13.34-16.94-15.13-27.67-1.62-9.74-2.65-24.74,4.82-32.5C92.77,74,99.14,74.39,105,74.68a59.8,59.8,0,0,0,15.63-1c8.65-1.84,17.35-6.14,19.3-15.5a.66.66,0,0,0-1.27-.34c-3.45,13-18.77,13.81-30.8,13.48A14.37,14.37,0,0,0,111,69.49c4.13-3.24,5.08-8.77,10-11.25.29-.15.08-.62-.23-.53-3.68,1-5.81,4.1-8.5,6.63-4.39,4.14-9.37,5.09-15.14,5.89C92.55,70.87,88,71.61,84,74a14.58,14.58,0,0,0-1.88,1.34C80.43,70.56,79.38,66,82,60.92c2.81-5.42,7.82-8,13.59-9.08,6.91-1.34,13.64-2.51,16.6-9.66.17-.41-.45-.59-.67-.28-3.75,5.22-11.13,5.46-16.86,6.55-.29,0-.56.12-.84.18.39-.43.77-.87,1.13-1.34,3.36-4.47,3.91-9.84,4.77-15.18,0-.3-.38-.43-.46-.13-1.7,7-5,12.76-10.85,17-3.78,2.79-8,5.22-10.66,9.25S74.71,67,74.9,71.73c.08,1.81.15,3.51.19,5.18l-1-1c-4.62-4.66-9.73-9-12.81-14.89-3.85-7.4-1.85-13.21,2.65-19.56,3.09-4.35,5.35-9,4.7-14.41-.05-.45-.74-.48-.72,0,.3,7.43-7.11,11.73-10.41,17.67a17.28,17.28,0,0,0-1.64,12.64c-5.53-6.57-10.45-13.65-11.77-22,0-.27-.49-.2-.48.07.62,12.8,7.28,22.06,15.4,31.48,1.56,1.82,3.11,3.65,4.61,5.51.15.72.33,1.43.52,2.13q-.39-.37-.81-.72c-2.08-1.66-3.9-3.2-6.36-4-1.33-.79-3.05-1-4.58-1.45-11.64-3.63-24.75,5.14-33.64-6.46a.59.59,0,0,0-1.08.46C19,69,27.19,70.84,33,70.89c1.64,0,3.28-.1,4.91-.24l-.19.1c-3.26,1.81-6.08,4.29-9.35,6.09a53.08,53.08,0,0,1-12.33,4.82.2.2,0,0,0,.05.39,34.44,34.44,0,0,0,15.08-3.78c6-3.15,11-7.72,18.25-6.53a20.22,20.22,0,0,1,9.83,4.73,25.47,25.47,0,0,1,4.06,5.86C68.18,92,67.9,104.48,66.51,115A53.84,53.84,0,0,1,57.4,138.72Z"/><path class="cls-4" d="M66.6,115.05c1.38-10.49,1.67-23-3.2-32.64a25.16,25.16,0,0,0-4.06-5.86,20.17,20.17,0,0,0-9.83-4.72c-7.28-1.2-12.27,3.38-18.25,6.52a34.27,34.27,0,0,1-15.08,3.78A.19.19,0,0,1,16,82c3.42-.71,10.14-2.57,12.55-3.74,3.25-1.58,11.66-7.65,11.66-7.65H37.92l-.36.12c-1.49.11-3,.21-4.46.2-5.83,0-14-1.88-15.33-8.54a.58.58,0,0,1,.17-.57c1.08,2.24,2.95,4.9,6,6,5.58,2.08,13.17,1.75,17.17,1.25s10.25.16,14.16,2,10.5,6.66,10.5,6.66l-1.49-3.17c-.19-.71-1.29-1.82-1.76-2.66a28.75,28.75,0,0,0-3.38-5C51,57.56,44.33,48.3,43.72,35.5a.24.24,0,0,1,.41-.16,22.47,22.47,0,0,0,1.7,8.38c2.83,6.67,12.41,18.83,12.41,18.83L56,57.44A17.23,17.23,0,0,1,57.6,44.8C60.91,38.87,68.31,34.56,68,27.13a.33.33,0,0,1,.22-.33c-.47,4.15-1.54,9.51-4,12.34-4.33,5-7.29,11.16-7,15.83s5.26,12.64,8.31,16c4,4.42,9.47,14.27,9.55,19,.06,3.27-4.36,32-.87,40.81a80.87,80.87,0,0,0,3.75,8H57.48A53.85,53.85,0,0,0,66.6,115.05ZM77.92,71.64a24.5,24.5,0,0,1,2.82-13.42c2.42-4.83,10.75-9.75,14-12.92C97.12,43,98.55,36,99.16,32.42,97.43,39.19,94.1,44.83,88.42,49c-3.78,2.79-8,5.22-10.66,9.25S74.71,67,74.9,71.73c.08,1.81.15,3.51.19,5.18L78,81.05A71.23,71.23,0,0,0,77.92,71.64Zm60.73-13.78c-3.45,13-18.77,13.81-30.8,13.48l-3.19,1s14.17.83,19-.5,11.33-5.84,13.25-8.17a19.12,19.12,0,0,0,2.75-6.19A.62.62,0,0,0,138.65,57.86ZM93.83,48.63,91.41,50.8s11.67-1.83,14.83-3.58a27.76,27.76,0,0,0,6-5.24.4.4,0,0,0-.69-.08c-3.75,5.22-11.13,5.46-16.86,6.55C94.38,48.5,94.11,48.57,93.83,48.63Zm23,12.51a11.63,11.63,0,0,1,4.31-3.06.3.3,0,0,0-.36-.37c-3.68,1-5.81,4.1-8.5,6.63-4.39,4.14-9.37,5.09-15.14,5.89C92.55,70.87,88,71.61,84,74a14.58,14.58,0,0,0-1.88,1.34,10.49,10.49,0,0,1,.21,5.11c2.91-7.42,20.91-9.67,24-10.25S114.83,63.72,116.83,61.14Z"/></g></g></svg>