<svg xmlns="http://www.w3.org/2000/svg" viewBox="0 0 104.03 174.99"><defs><style>.cls-1{fill:#62b257;}.cls-2{fill:#589b4c;}.cls-3{fill:#725033;}.cls-4{fill:#604129;}</style></defs><title>Fichier 2</title><g id="Calque_2" data-name="Calque 2"><g id="OBJECTS"><path class="cls-1" d="M103.18,33.66a19.26,19.26,0,0,0-18-13.34,12,12,0,0,0-4.81-5.89,8.58,8.58,0,0,0-2-.82c-.26-3.92-2-7.63-6.18-8.89A11.53,11.53,0,0,0,65.86,5c-6-8.49-22-4.67-28.82.79a26.79,26.79,0,0,0-9.25,24.42,8.45,8.45,0,0,0-4.43,3.1,11,11,0,0,0-1.25,9.32c-5.23,3-6.07,11.29-4.5,17,2,7.37,9.07,10.58,15.16,7.51a11.84,11.84,0,0,0,8.41,8.81c5.47,1.64,12.33,1.21,15.37-3.94C63,81.25,78.7,78,82,66.74c2.18,1.5,6.25.3,8.09-1.18a6.84,6.84,0,0,0,2.75-5.47,5.26,5.26,0,0,0-.3-1.6C101.36,55.2,106.07,42.38,103.18,33.66Z"/><path class="cls-2" d="M101.23,50.27c-5.86,5.3-15.44,5.85-15.44,5.85-1.33,8.16-10,5.58-10,5.58-11.5,7.41-14.92-10.42-14.92-10.42-8.43,5-11.08-12-11.08-12s-9.5.46-14-15.67C32.08,10.38,43.94,2.94,48.26.72A29.07,29.07,0,0,0,37,5.76a26.79,26.79,0,0,0-9.25,24.42,8.45,8.45,0,0,0-4.43,3.1,11,11,0,0,0-1.25,9.32c-5.23,3-6.07,11.29-4.5,17,2,7.37,9.07,10.58,15.16,7.51a11.84,11.84,0,0,0,8.41,8.81c5.47,1.64,12.33,1.21,15.37-3.94C63,81.25,78.7,78,82,66.74c2.18,1.5,6.25.3,8.09-1.18a6.84,6.84,0,0,0,2.75-5.47,5.26,5.26,0,0,0-.3-1.6A17,17,0,0,0,101.23,50.27Z"/><path class="cls-1" d="M58.37,81.39c-2.17-2.64-5.84-4.26-9.58-5.09.44-3.4-.51-6.87-3.89-8.53-1.74-.86-4.85-.55-7.37.59a11.89,11.89,0,0,0-14.55-6,12.23,12.23,0,0,0-7.7,7.1,13.29,13.29,0,0,0-7.48,2C3.93,73.92,2.74,79,1.85,83.22c-1.31,6.28.54,13,5.24,17a6.1,6.1,0,0,0-.73,6.59c1.7,3.68,5.75,3.77,8.83,2.08a11.59,11.59,0,0,0,2.61,6.85c3.38,4.47,7.21,5.61,12.65,4.88,4.69-.62,9.55-2.82,11.8-7.23a10.71,10.71,0,0,0,1.11-4.07c7.79.37,14.65-6.6,16.76-14.5C61.27,90.55,61.35,85,58.37,81.39Z"/><path class="cls-2" d="M15.28,69.42a13.29,13.29,0,0,0-7.48,2A18,18,0,0,0,.28,82.45C-1,88.73,2.39,96.27,7.09,100.25a6.1,6.1,0,0,0-.73,6.59c1.7,3.68,5.75,3.77,8.83,2.08a11.59,11.59,0,0,0,2.61,6.85c3.38,4.47,7.21,5.61,12.65,4.88,4.69-.62,9.55-2.82,11.8-7.23a10.71,10.71,0,0,0,1.11-4.07c6.12.29,11.66-4,14.78-9.63-5.19.66-10.86-6.94-10.86-6.94S47,101.45,43,104.62s-9.18-4.17-9.18-4.17-3.32,4.67-10,2.67-4.66-11-4.66-11-6,1-10.84-7.34S15.28,69.42,15.28,69.42Z"/><path class="cls-3" d="M49.89,120.63a130.47,130.47,0,0,0-1.65,17,124.14,124.14,0,0,1-2.33,20.24c-1,5.55-1.95,11.32-1,16.92H66.7c-6.57-17-5.88-34.58-5.55-52.49a207.24,207.24,0,0,0-1.39-26.48c-.78-7.18-.19-13.88.49-20.8a46.14,46.14,0,0,1,5.81-12.7A66.24,66.24,0,0,1,77.51,49.54c3.15-2.81,6.93-6.16,8.26-10.29.18-.56-.58-.78-.89-.37-3.71,4.95-8.83,7.73-13.27,11.91a28.79,28.79,0,0,0,3.71-12c0-.5-.8-.62-.89-.12-1.76,10.85-11.18,18-16.36,27.2a49.51,49.51,0,0,0-2.53,5.2c-.09-.5-.19-1-.27-1.49q-.78-4.25-1.41-8.52c0-.5,0-1,0-1.49a290.49,290.49,0,0,0-1.41-40.77c-.06-.54-.87-.58-.87,0-.12,8.89-.15,17.76-.37,26.63-2.25-6.69-6.71-12.31-8.78-19.1a.42.42,0,0,0-.81.22c1.32,7,5,13.09,6.75,19.93A88,88,0,0,1,50.53,62a110,110,0,0,0-.2,17.6c.65,6.7,2,13.3,1.87,20.07a123.36,123.36,0,0,1-1.33,14.24c-3.19-3.37-6.41-6.71-9.57-10.11a42.89,42.89,0,0,1-3.59-11.41c-1.15-6.22-1.91-12.47-5.2-18a.16.16,0,0,0-.29.12c1.33,6.29,1.3,14.72,2.92,22.25a100.77,100.77,0,0,0-9.81-11s-.09,0-.08,0c2.41,6.52,7.16,12.71,11.15,18.35A136.93,136.93,0,0,0,49.89,120.63Z"/><path class="cls-3" d="M49.89,120.85a130.15,130.15,0,0,0-1.65,17,124.14,124.14,0,0,1-2.33,20.24c-1,5.55-1.95,11.32-1,16.92H66.7c-6.57-17-5.88-34.58-5.55-52.49A207.24,207.24,0,0,0,59.76,96c-.78-7.18-.19-13.88.49-20.8a46.27,46.27,0,0,1,5.81-12.7A66.84,66.84,0,0,1,77.51,49.75c3.15-2.81,6.93-6.15,8.26-10.29.18-.56-.58-.78-.89-.37C81.17,44,76.05,46.82,71.61,51a28.79,28.79,0,0,0,3.71-12c0-.5-.8-.62-.89-.12-1.76,10.86-11.18,18-16.36,27.2a49.51,49.51,0,0,0-2.53,5.2c-.09-.5-.19-1-.27-1.49q-.78-4.25-1.41-8.52c0-.5,0-1,0-1.49A290.54,290.54,0,0,0,52.49,19c-.06-.54-.87-.58-.87,0-.12,8.89-.15,17.76-.37,26.63-2.25-6.69-6.71-12.31-8.78-19.1a.42.42,0,0,0-.81.22c1.32,7,5,13.09,6.75,19.93a88,88,0,0,1,2.12,15.55,110,110,0,0,0-.2,17.6c.65,6.7,2,13.3,1.87,20.07a123.36,123.36,0,0,1-1.33,14.24c-3.19-3.37-6.41-6.71-9.57-10.11a42.89,42.89,0,0,1-3.59-11.41c-1.15-6.21-1.91-12.47-5.2-18a.16.16,0,0,0-.29.13C33.55,81,33.52,89.46,35.14,97a100.77,100.77,0,0,0-9.81-11,0,0,0,0,0-.08,0c2.41,6.51,7.16,12.7,11.15,18.34A137.81,137.81,0,0,0,49.89,120.85Z"/><path class="cls-4" d="M57.17,174.78H44.9c-.94-5.6,0-11.37,1-16.92a124.14,124.14,0,0,0,2.33-20.24,130.47,130.47,0,0,1,1.65-17,136.93,136.93,0,0,1-13.49-16.5c-4-5.64-8.74-11.83-11.15-18.35,0,0,.05-.07.08,0s7.45,11,10.79,14.46l-1-3.42c-1.59-7.4-1.6-15.67-2.86-21.92l.23-.45a102.67,102.67,0,0,1,2.86,12.21c.58,4.58,1.16,13.58,2.91,16.25a24.39,24.39,0,0,0,5.09,6c2.16,1.83,7.33,7.25,7.33,7.25l.17-2.19A123.36,123.36,0,0,0,52.2,99.69c.15-6.77-1.22-13.37-1.87-20.07a110,110,0,0,1,.2-17.6,88,88,0,0,0-2.12-15.55c-1.74-6.84-5.43-13-6.75-19.93A.43.43,0,0,1,42,26,25.11,25.11,0,0,0,44.37,33c2.5,4.83,6.83,16,6.83,16l0-3.53c.22-8.87.25-17.74.37-26.63,0,0,.33,41.33,1.5,49.33s2.15,32.5,2.4,53C55.74,138.25,52.05,154.81,57.17,174.78ZM79.7,46.45c-2.67,2-9.92,7.42-13.08,11.83S59.53,69,59,72.37s.46,14.91.46,14.91h0c.08-4,.44-8,.84-12a46.27,46.27,0,0,1,5.81-12.7A66.84,66.84,0,0,1,77.51,49.75c3.15-2.81,6.93-6.15,8.26-10.29a.34.34,0,0,0,0-.14C84.52,41.11,81.71,44.94,79.7,46.45Z"/></g></g></svg>