<svg xmlns="http://www.w3.org/2000/svg" viewBox="0 0 158.61 192.35"><defs><style>.cls-1{fill:#97c44e;}.cls-2{fill:#84a33a;}.cls-3{fill:#725033;}.cls-4{fill:#604129;}</style></defs><title>Fichier 1</title><g id="Calque_2" data-name="Calque 2"><g id="OBJECTS"><path class="cls-1" d="M150.89,52.26a23.71,23.71,0,0,0-17-6.14,14.08,14.08,0,0,0-3.76-6.95,11.24,11.24,0,0,0-5.57-2.67c0-14.33-10.83-28.49-23.66-33.74a35.57,35.57,0,0,0-36,5.09c-7.06-4.13-18.07-.46-23.4,4.87a21.9,21.9,0,0,0-5.54,19.93,5.88,5.88,0,0,0-6.15,2.51,7.74,7.74,0,0,0-1.26,4.38C15.81,37.44,3.79,51.69.8,62.7-2,72.86,2.5,86.76,13.12,90a23.49,23.49,0,0,0,12.3,15.1c4.71,2.1,12.78,1.25,17.71-2.36,1.53,2.74,4.48,5,7.73,4.57a7.29,7.29,0,0,0,4-2.16,33.84,33.84,0,0,0,9.68,4.62c6.77,2.2,16,3,23.3.42A13.59,13.59,0,0,0,90,111.68c3.73,2,8,.13,10.63-3.07a12.55,12.55,0,0,0,9.92,2.49c6.39-1.09,10.34-5.56,12.64-11,13.39,2.26,28.2-6.6,33.46-20.14C160.45,70.21,158.84,59.47,150.89,52.26Z"/><path class="cls-2" d="M152.11,87.89c-10.78,5.42-20.17-2.55-20.17-2.55-11.25,10-22.25-1.24-22.25-1.24-9.75,5-16-6.73-16-6.73-21,12.77-27.25-6.11-27.25-6.11s-11,10.09-18.5-3.41,7.25-22.1,7.25-22.1-9.75,1.1-12.25-17.65C41,13.68,51.51,8,56.46,6.12a24.73,24.73,0,0,0-15.05,6.6,21.9,21.9,0,0,0-5.54,19.93,5.88,5.88,0,0,0-6.15,2.51,7.74,7.74,0,0,0-1.26,4.38C15.81,37.44,3.79,51.69.8,62.7-2,72.86,2.5,86.76,13.12,90a23.49,23.49,0,0,0,12.3,15.1c4.71,2.1,12.78,1.25,17.71-2.36,1.53,2.74,4.48,5,7.73,4.57a7.29,7.29,0,0,0,4-2.16,33.84,33.84,0,0,0,9.68,4.62c6.77,2.2,16,3,23.3.42A13.59,13.59,0,0,0,90,111.68c3.73,2,8,.13,10.63-3.07a12.55,12.55,0,0,0,9.92,2.49c6.39-1.09,10.34-5.56,12.64-11C133.73,101.91,145.16,96.77,152.11,87.89Z"/><path class="cls-3" d="M45.86,78c2-.43,4.25-1.44,6.35-1.27A8.52,8.52,0,0,1,57.08,79C62,85.39,68,90.64,70.63,98.63,74,109.06,70.65,122,69,132.47c-1.76,11.28-4.25,22.39-6.58,33.56-1,4.72-1.84,9.47-2.45,14.25-.43,3.36-1.53,8.33-.79,12.07h26c.78-4.36-1.05-9.18-1.45-13.57-.46-5.21-.55-10.44-.49-15.67.13-10.93.8-21.83.39-32.76-.07-1.85-.17-3.7-.28-5.56.15-1.71.33-3.44.57-5.19v-.09a36.06,36.06,0,0,1,7.4-17.08c4.13-5.29,8.84-10.61,11.43-16.48,1.46-2.14,2.78-4.39,4.27-6.52,3.62-5.18,8.36-6.76,14.29-8,6.39-1.3,13.39-3,15.13-10.09.11-.45-.54-.76-.77-.32-4.75,9-16.63,5.82-24.46,9.34a14.65,14.65,0,0,0-3.1,1.91,122.51,122.51,0,0,0,5.66-22.2c.11-.69-.9-1-1.09-.29-4.54,18-14.26,34.71-26.66,48.49a66.4,66.4,0,0,0-4.58,5.65c-.2-1.59-.38-3.19-.6-4.78-.74-5.45-1.77-10.9-2.26-16.38a39.38,39.38,0,0,1,.13-7.54,14.79,14.79,0,0,1,1.75-3.89c3.15-4.87,8.09-8.43,11.26-13.37a51.56,51.56,0,0,0,6.85-17,.44.44,0,0,0-.84-.24,58,58,0,0,1-7.23,12.81c0-.2,0-.41.06-.6.75-7.43-1.15-14.23,1.44-21.5.17-.49-.51-.67-.78-.32-3.21,4.24-3.69,10-3.91,15.22-.14,3.24,0,6.5-.81,9.68a20.8,20.8,0,0,1-1.83,4.22c-3.21,3.08-6.81,5.69-9.08,9.49-.41-3.46-1.38-6.9-1.6-10.41a45,45,0,0,1,.87-12.47c1.53-7.08,7-13.77,6.59-21.12,0-.48-.78-.65-.89-.12-1,5-3.91,8.74-6.36,13.07a35.09,35.09,0,0,0-4.13,11.92,41.13,41.13,0,0,0-.44,4.22c-.13-.2-.24-.41-.38-.61C64.9,48.1,57,44.69,54.53,37.18a.5.5,0,0,0-1,.27C54.94,44.17,60.24,47.84,64.28,53c5.21,6.61,5.47,15.24,7.92,23,.29,4.71.57,9.41.77,14.12a57,57,0,0,0-6.27-8.53C60.22,74,54.82,66.21,53.12,56.2c-.09-.57-1.07-.44-1,.13a51.25,51.25,0,0,0,4.81,17.78,9.62,9.62,0,0,0-4.71-1.06c-2.54.14-4.94,1.18-7.37,2a59.82,59.82,0,0,1-6.91-5,53.78,53.78,0,0,1-6.61-7.37c-.09-.13-.35-.06-.28.12A29,29,0,0,0,41.37,76,25.34,25.34,0,0,1,28.46,74.8a.28.28,0,0,0-.23.51A25.38,25.38,0,0,0,45.86,78Z"/><path class="cls-4" d="M72.2,75.93c.29,4.71.57,9.41.77,14.12,0-.09-.11-.17-.16-.25L73,90.88l2.47,3.8a107.66,107.66,0,0,0,0-11.17,112.55,112.55,0,0,0-4.33-20.66c-1.33-3.5-2.93-9.15-9.17-13.67-3.4-2.47-6.31-7.31-8.26-11.27C55.19,44.33,60.33,48,64.28,53,69.49,59.57,69.75,68.2,72.2,75.93Z"/><path class="cls-4" d="M74.78,100.18c-1.84-4.83-12.34-19.83-14.67-21.83S55,74.2,46.78,77.18c-5.86,2.13-12.71.42-16.14-.73A24.76,24.76,0,0,0,45.86,78c2-.43,4.25-1.44,6.35-1.27A8.52,8.52,0,0,1,57.08,79C62,85.39,68,90.64,70.63,98.63,74,109.06,70.65,122,69,132.47c-1.76,11.28-4.25,22.39-6.58,33.56-1,4.72-1.84,9.47-2.45,14.25-.43,3.36-1.53,8.33-.79,12.07H76.46c-3-26.67-1.52-53.67-.52-66.67S76.61,105,74.78,100.18Z"/><path class="cls-4" d="M112.82,55.37a7.26,7.26,0,0,0-1,.89l1.33-6.86a.49.49,0,0,0-.42.4c-4.54,18-14.26,34.71-26.66,48.49a66.4,66.4,0,0,0-4.58,5.65l.82,4.9S98.11,90,101.61,82.68s8-19.8,10.66-24.73C112.46,57.09,112.64,56.23,112.82,55.37Z"/><path class="cls-4" d="M136.31,60.94c-.91,1.76-2.31,4.12-4.12,5.35-3,2.06-9.58,1.68-14.25,4.68s-9.07.46-12.34,10.61h0c.47-.72,1-1.44,1.44-2.15,3.62-5.18,8.36-6.76,14.29-8,6.39-1.3,13.39-3,15.13-10.09A.41.41,0,0,0,136.31,60.94Z"/><path class="cls-4" d="M73.32,44c1.5-5.12,3.75-7.75,6-11.62,1.69-2.94,1.54-5.26,1.75-7a.38.38,0,0,0-.49.31c-1,5-3.91,8.74-6.36,13.07a35.09,35.09,0,0,0-4.13,11.92,37.58,37.58,0,0,0-.43,4.14l1.67,2.31A75.52,75.52,0,0,1,73.32,44Z"/><path class="cls-4" d="M98.58,41a.4.4,0,0,0-.3-.52A31.07,31.07,0,0,1,93.82,52C89.69,58,83.07,64.6,80.44,67.85s-1.89,9.52-1.89,9.52h0c0-.71.1-1.41.17-2.12a14.79,14.79,0,0,1,1.75-3.89c3.15-4.87,8.09-8.43,11.26-13.37A51.56,51.56,0,0,0,98.58,41Z"/><path class="cls-4" d="M89.07,47.6c.37-6.5-.31-11.47,1.78-15.89C88,35.9,87.53,41.43,87.32,46.39c-.14,3.24,0,6.5-.81,9.68a17.09,17.09,0,0,1-1.57,3.71l3.75-5.68Z"/></g></g></svg>