<svg xmlns="http://www.w3.org/2000/svg" viewBox="0 0 156.98 191"><defs><style>.cls-1{fill:#62b257;}.cls-2{fill:#589b4c;}.cls-3{fill:#725033;}.cls-4{fill:#604129;}</style></defs><title>Fichier 4</title><g id="Calque_2" data-name="Calque 2"><g id="OBJECTS"><path class="cls-1" d="M151.21,43.2c1.12-3.87,0-7.92-4.39-10.69-4.81-3-11.54-2.75-16.43.2a14.28,14.28,0,0,0-5.24-5.17,6.25,6.25,0,0,0-3.57-1A13,13,0,0,0,118,16.35,12,12,0,0,0,110.81,13,11.8,11.8,0,0,0,107,6.31a8.91,8.91,0,0,0-7-1.83C96.44.22,89.28-.44,84.1.22,77,1.13,73.19,5.47,71.91,11.45a6.89,6.89,0,0,0-8.1.81,8.51,8.51,0,0,0-2.66,7.91,11,11,0,0,0-9.61,1.46,12,12,0,0,0-4.29,5.25c-4.74-3.23-11.53-4.23-16.43-2.51-8,2.82-11,9.63-10.47,17a4.57,4.57,0,0,0-4.33.93,5,5,0,0,0-1.55,4.09C5.5,47.23-1.4,57.18.24,65.91A13.19,13.19,0,0,0,8.53,76a16,16,0,0,0,1.8.53,16,16,0,0,0,3.13,8.21c4,5.13,10.73,3.32,15.19-.06a3.67,3.67,0,0,0,2.8,1.79c2.33.33,4.67-1.15,6-3.12,1,3.52,2.76,6.74,6.09,8.72a12,12,0,0,0,10.65.35c1.51,4.53,6.17,8.68,10.25,9.5,6.8,1.37,12.64-3,16.4-8.44a24.11,24.11,0,0,0,16.78,7c5.13,0,11.33-2.46,14-6.83A11,11,0,0,0,120,91.31c1.43-1.34,2.54-4.13,2.83-6.92a21.59,21.59,0,0,0,9.84-.91c5.83-2.1,10.89-7.49,11.93-13.66,5-1.12,9.88-5.3,11.52-9.5C158.18,55,156.54,45.75,151.21,43.2Z"/><path class="cls-2" d="M126.67,75C118.33,86.33,105,74,105,74s-3.33,4.33-14.5,9.17S71.67,71.09,71.67,71.09s-5.94,11.42-16.25,8.27-6.09-18.69-6.09-18.69-5.79,7.41-14.63,0,7.63-19,7.63-19S31.67,42,32.13,31C32.3,27,34,24.77,36,23.54a16.13,16.13,0,0,0-5.19.83c-8,2.82-11,9.63-10.47,17a4.57,4.57,0,0,0-4.33.93,5,5,0,0,0-1.55,4.09C5.5,47.23-1.4,57.18.24,65.91A13.19,13.19,0,0,0,8.53,76a16,16,0,0,0,1.8.53,16,16,0,0,0,3.13,8.21c4,5.13,10.73,3.32,15.19-.06a3.67,3.67,0,0,0,2.8,1.79c2.33.33,4.67-1.15,6-3.12,1,3.52,2.76,6.74,6.09,8.72a12,12,0,0,0,10.65.35c1.51,4.53,6.17,8.68,10.25,9.5,6.8,1.37,12.64-3,16.4-8.44a24.11,24.11,0,0,0,16.78,7c5.13,0,11.33-2.46,14-6.83A11,11,0,0,0,120,91.31c1.43-1.34,2.54-4.13,2.83-6.92a21.59,21.59,0,0,0,9.84-.91A19.44,19.44,0,0,0,142.08,76C133.07,81.12,126.67,75,126.67,75Z"/><path class="cls-3" d="M80.4,123.26c2-4.62,3.9-9.23,5.71-13.92C90.92,96.89,92.79,83,99.83,71.59l.38-.34c1.56-1.32,3.15-2.56,4.69-3.86,5.65-1.91,11.7-.84,17.62-2.24,5.06-1.19,9.55-3.9,12.09-8.53a.15.15,0,0,0-.23-.18c-5.28,5.14-12.12,6.81-19.34,6.82-1.91,0-3.92,0-5.88.09.31-.35.63-.71.93-1.08a44,44,0,0,0,6.59-12.53c.26-.72-.85-1-1.13-.32a33.89,33.89,0,0,1-10,13.25c-3.72,3.07-8.09,5.27-11.27,9a20.21,20.21,0,0,0-3.38,5.79,112.58,112.58,0,0,0-3.4-12.81c-.12-.39-.21-.78-.31-1.17a47.14,47.14,0,0,1-.91-7h0c0-.62,0-1.23.06-1.85,1.46-6,2.46-12.59,7.91-15.94,4.19-2.57,8.5-3.66,10.57-8.51.19-.45-.41-.84-.68-.4-3.51,5.77-11.69,5.1-15.7,10.4a21.25,21.25,0,0,0-2.86,5.44,39.22,39.22,0,0,0-1-5.26c-1.83-7.07-6.06-13.65-5-21.21,0-.34-.47-.51-.54-.15a29.23,29.23,0,0,0,.76,13.65A89.34,89.34,0,0,1,83,52.06c.2,5.41.4,10.85,1.83,16.11.6,2.2,1.34,4.32,1.95,6.44.1.5.2,1,.29,1.51a41.43,41.43,0,0,1,.6,5.61A55.34,55.34,0,0,1,82.38,98a2.09,2.09,0,0,1-.72.65l-.3.12c-4.09-2.63-7.12-7.62-10.53-11S63.9,81,61.68,76.85a20.34,20.34,0,0,1,.07-13.68c2.75-7.91,13.29-13,12.8-21.84,0-.39-.63-.52-.72-.09C72.49,48,66.21,50.55,62.44,55.68c-.46.63-.88,1.28-1.28,2A21,21,0,0,0,58.6,45.39c-.17-.29-.59,0-.44.26C63,55.58,54.9,66.28,56.75,76.4a72.52,72.52,0,0,1-9.12-7.27,46.12,46.12,0,0,1-6.32-8,64.48,64.48,0,0,1-4-9.44c-.92-2.82-2.15-5.73-4.87-7.19-.13-.07-.31.08-.22.21,2.61,3.54,3,7.58,4.42,11.62a25.94,25.94,0,0,0,2.42,5.08,36.16,36.16,0,0,0,4.48,6.71c-3.25-1.24-6.7-1.49-10-2.44a22,22,0,0,1-12.46-8.85.3.3,0,0,0-.52.31A24.46,24.46,0,0,0,37,69.3c7.32,1.75,12.77,5.89,18.43,10.06,9,8.46,17.64,16.93,18.27,30,.77,16.07-9,29.28-16.74,42.46A54.37,54.37,0,0,0,50.34,191H80.66C66.65,170.42,71.9,145.62,80.4,123.26Z"/><path class="cls-4" d="M85.17,60.67c-.84-4.67-.34-8.84-.34-11.5a46.73,46.73,0,0,0-3.58-14.5C79.17,30.17,79.13,19,79.13,19a29.23,29.23,0,0,0,.76,13.65A89.34,89.34,0,0,1,83,52.06c.2,5.41.4,10.85,1.83,16.11.6,2.2,1.34,4.32,1.95,6.44.1.5.2,1,.29,1.51a41.43,41.43,0,0,1,.6,5.61A55.34,55.34,0,0,1,82.38,98l-2.13,5.42S68.63,88.5,65.63,85.88s-4.88-6.75-5.88-9.5-.25-11.25,1.13-15.63,10-11.5,11.75-14a17.34,17.34,0,0,0,1.8-5.66.34.34,0,0,0-.6.15C72.49,48,66.21,50.55,62.44,55.68c-.46.63-.88,1.28-1.28,2A21,21,0,0,0,58.6,45.39c-.17-.29-.59,0-.44.26C63,55.58,54.9,66.28,56.75,76.4l1,2.58S50.64,74.5,49,72.13s-6.12-6.88-7.75-9.5A103,103,0,0,1,35,48.25a8.52,8.52,0,0,0-2.79-3.7.17.17,0,0,0,0,.12c2.61,3.54,3,7.58,4.42,11.62a25.94,25.94,0,0,0,2.42,5.08,36.16,36.16,0,0,0,4.48,6.71L45.25,70s-5.12-1.25-9.75-2.62S29.13,65.13,23.73,60a33.38,33.38,0,0,1-3.12-3.3.28.28,0,0,0-.08.38A24.46,24.46,0,0,0,37,69.3c7.32,1.75,12.77,5.89,18.43,10.06,9,8.46,17.64,16.93,18.27,30,.77,16.07-9,29.28-16.74,42.46A54.37,54.37,0,0,0,50.34,191H65.58c-2.68-10.14-5.87-25.82-2.41-33.17,5.33-11.33,12-35.5,16-43.16S90,86.5,90.5,83.17,86,65.33,85.17,60.67Z"/></g></g></svg>