<svg xmlns="http://www.w3.org/2000/svg" viewBox="0 0 115.41 169.39"><defs><style>.cls-1{fill:#8eb641;}.cls-2{fill:#97c44e;}.cls-3{fill:#84a33a;}.cls-4{fill:#725033;}.cls-5{fill:#604129;}</style></defs><title>Fichier 3</title><g id="Calque_2" data-name="Calque 2"><g id="OBJECTS"><path class="cls-1" d="M98.63,52.63c6.71-6.35,7-17.06,1.1-25.4-2.93-4.15-7.14-8.14-12.36-8.3A18.1,18.1,0,0,0,80.76,8.46C78,6.3,73.77,4.25,70.15,5.13a7.57,7.57,0,0,0-1.45.51C67.37,2.56,65.09.11,61.2,0,58-.09,55,2.45,53.82,5.53,49.13,3,42.61,4.22,38.28,8.48c-4.77,4.69-7.46,13.68-5.14,20.43-9.68,1.53-16.32,10.6-15.26,20.71A21.75,21.75,0,0,0,25,63.84c.15.13.32.23.47.35A12.16,12.16,0,0,0,26.68,74,9.43,9.43,0,0,0,35,78.86c.81,5,4.65,9.3,9.41,11.39,5.47,2.4,10.83.29,14.46-3.72,3.08,3.56,8.09,5.83,12.43,5.1,6.36-1.06,9.29-6.87,9.82-12.83a26,26,0,0,0,15.11-6.59c3.65-3.48,5.91-7.73,4.85-12.83A23.92,23.92,0,0,0,98.63,52.63Z"/><path class="cls-2" d="M113.89,31.32c-1.65-3.31-5.37-5.93-9.4-7.08-2.59-8.54-14-12.68-22.7-11.59-8,1-15.3,8.07-16,16.16a14.09,14.09,0,0,0-7.3,6.46,19,19,0,0,0-.09,16.24,7.05,7.05,0,0,0,.68,7.54,8.26,8.26,0,0,0,3.56,2.61,13.07,13.07,0,0,0,2.82,6.11c4.35,5.31,10.41,5.57,15.14,2.24A15.54,15.54,0,0,0,95,74.31a16.33,16.33,0,0,0,11.53-10.19,12.29,12.29,0,0,0,.37-7.5,8.44,8.44,0,0,0,3.44-3,5.17,5.17,0,0,0-.26-5.41C114.86,44.2,117.13,37.8,113.89,31.32Z"/><path class="cls-3" d="M65.48,67.77c4.35,5.31,10.41,5.57,15.14,2.24A15.54,15.54,0,0,0,95,74.31a16.33,16.33,0,0,0,11.53-10.19,12.29,12.29,0,0,0,.37-7.5,8.44,8.44,0,0,0,3.44-3,4.59,4.59,0,0,0,.64-2.54c-5.35,3.89-12.36,1.51-12.36,1.51A11.88,11.88,0,0,1,91,62.14c-7.25,3-7.17-10.5-7.17-10.5s-8.33,6.26-12.49-2.59c-3.6-7.64,3.5-13.54,3.5-13.54-2.42-.14-5.15-1.87-4-12,.34-3.06,2.92-6.54,4.48-8.66-5.09,2.89-9,8.13-9.46,13.92a14.09,14.09,0,0,0-7.3,6.46,19,19,0,0,0-.09,16.24,7.05,7.05,0,0,0,.68,7.54,8.26,8.26,0,0,0,3.56,2.61A13.07,13.07,0,0,0,65.48,67.77Z"/><path class="cls-2" d="M56.58,36.47c-.71-4.1-3.38-8.21-6.55-10a11,11,0,0,0-4-1.29C44.7,17.35,38.6,10.94,29.55,11.74a19.44,19.44,0,0,0-8.47,2.64C14.55,17.19,9.41,24,9.57,31.62A12.26,12.26,0,0,0,.42,40.85C-.7,45.62.39,52.67,4.2,56.35a9.1,9.1,0,0,0-1,8c.93,2.75,4.25,5.3,7.19,5.18.37,7.18,7.19,14.18,14.43,15.2,9.83,1.39,18.09-5,20.68-13.76a10.17,10.17,0,0,0,6.88-2.38A6.55,6.55,0,0,0,54,61.38c6.87-2.26,13.28-7.6,14.08-14.83S62.65,36.09,56.58,36.47Z"/><path class="cls-3" d="M44,62.72c-8.75,12.58-18.5-.33-18.5-.33-12.44,2.29-14.25-8-14.25-8C3,54.13.76,47,.17,42.23-.47,46.9.74,53,4.2,56.35a9.1,9.1,0,0,0-1,8c.93,2.75,4.25,5.3,7.19,5.18.37,7.18,7.19,14.18,14.43,15.2,9.83,1.39,18.09-5,20.68-13.76a10.17,10.17,0,0,0,6.88-2.38,6.27,6.27,0,0,0,1.95-5.82C50.38,67.62,44,62.72,44,62.72Z"/><path class="cls-4" d="M33.76,65.3c10,7.19,22.69,7.21,33.53,12.32,11.08,8,17.38,22.06,18.1,36.27,1,19.58-3.74,41.28-17.73,55.5h39.66a67.17,67.17,0,0,1-7.62-18.55c-1.09-6-1-12-.93-18.13,0-4.14-.1-8.7-.54-13.3.07-13.46-4.17-27.29-9.13-39.3-3.49-8.45-6.79-18-1-26.33,3.22-4.64,7.9-8.62,7.67-14.72a.2.2,0,0,0-.39,0c-.92,7.38-9,10.8-11.93,17.28a18.55,18.55,0,0,0-1.57,5.94A49.24,49.24,0,0,1,80.9,45c0-.24-.35-.33-.45-.13C74.78,56.83,80,69.75,84.38,81.28q.54,2.48,1.05,5c-5.78-7.08-14.85-12-23-14.84-4.53-1.56-9.17-2.75-13.79-4-5-1.33-10.52-2.59-11-8.9C37.32,54.34,38.9,50.16,39,46a36.23,36.23,0,0,0-2.26-12.57.13.13,0,0,0-.24.07,41.76,41.76,0,0,1-.22,17.28c-.6,3-1.52,6.15-1.16,9.24a9.51,9.51,0,0,0,1.25,3.84A42,42,0,0,1,16.81,35.65c0-.18-.34-.14-.32,0A42.32,42.32,0,0,0,33.76,65.3Z"/><path class="cls-5" d="M37.09,37.64a39.26,39.26,0,0,0-.62-4.19s0,0,0,0l.24,0S36.9,35.14,37.09,37.64ZM88.62,151.05c.33-13.16,5.5-24.5,3.67-39.33s-7.5-21.17-12.17-27.17a27.47,27.47,0,0,0-15.5-10c-4.67-1-22.67-8.16-25-9.16S35,57.7,36.71,53.05c1-2.85.79-9.58.46-14.37a44.58,44.58,0,0,1-.92,12c-.6,3-1.52,6.15-1.16,9.24a9.51,9.51,0,0,0,1.25,3.84A42,42,0,0,1,16.81,35.65c0-.18-.34-.14-.32,0A42.32,42.32,0,0,0,33.76,65.3c10,7.19,22.69,7.21,33.53,12.32,11.08,8,17.38,22.06,18.1,36.27,1,19.58-3.74,41.28-17.73,55.5H91A68.83,68.83,0,0,1,88.62,151.05Zm-3.19-64.8,4.15,5.39s-.75-3.63-1.75-7.38S83.58,72.51,80.45,65s0-20.12,0-20.12C74.78,56.83,80,69.75,84.38,81.28Q84.92,83.76,85.43,86.25Z"/></g></g></svg>