<svg xmlns="http://www.w3.org/2000/svg" viewBox="0 0 1470 45.23"><defs><style>.cls-1{fill:#4f6f6b;}.cls-2{fill:#a4b5ae;}</style></defs><title>route</title><g id="Calque_2" data-name="Calque 2"><g id="_ëîé_1" data-name="—ëîé_1"><rect class="cls-1" width="1470" height="45.23"/><rect class="cls-2" y="17.37" width="6" height="3"/><path class="cls-2" d="M1452,20.37h-12v-3h12Zm-24.1,0h-12v-3h12Zm-24.1,0h-12v-3h12Zm-24.1,0H1367.6v-3h12.05Zm-24.1,0h-12v-3h12Zm-24.09,0H1319.4v-3h12.06Zm-24.1,0h-12v-3h12Zm-24.1,0h-12v-3h12Zm-24.1,0h-12.05v-3h12.05Zm-24.1,0h-12v-3h12Zm-24.1,0h-12v-3h12Zm-24.1,0h-12v-3h12Zm-24.1,0h-12v-3h12Zm-24.1,0h-12.05v-3h12.05Zm-24.1,0h-12v-3h12Zm-24.1,0h-12v-3h12Zm-24.09,0h-12.06v-3h12.06Zm-24.1,0h-12.06v-3h12.06Zm-24.1,0h-12v-3h12Zm-24.1,0H982v-3h12.05Zm-24.1,0H957.92v-3H970Zm-24.1,0h-12v-3h12Zm-24.1,0h-12v-3h12Zm-24.1,0h-12v-3h12Zm-24.1,0H861.52v-3h12.05Zm-24.1,0H837.42v-3h12.05Zm-24.1,0h-12v-3h12Zm-24.1,0h-12v-3h12Zm-24.1,0h-12v-3h12Zm-24.09,0H741v-3h12.06Zm-24.1,0H716.93v-3H729Zm-24.1,0h-12v-3h12Zm-24.1,0h-12v-3h12Zm-24.1,0h-12v-3h12Zm-24.1,0H620.53v-3h12.05Zm-24.1,0H596.43v-3h12.05Zm-24.1,0h-12v-3h12Zm-24.1,0h-12v-3h12Zm-24.1,0h-12v-3h12Zm-24.1,0H500v-3h12.05Zm-24.09,0H475.93v-3H488Zm-24.1,0H451.84v-3h12.05Zm-24.1,0H427.74v-3h12.05Zm-24.1,0H403.64v-3h12.05Zm-24.1,0h-12v-3h12Zm-24.1,0H355.44v-3h12.05Zm-24.1,0H331.34v-3h12.05Zm-24.1,0H307.24v-3h12.05Zm-24.1,0H283.14v-3h12.05Zm-24.1,0H259v-3h12Zm-24.1,0H234.94v-3H247Zm-24.1,0h-12v-3h12Zm-24.09,0H186.74v-3H198.8Zm-24.1,0h-12v-3h12Zm-24.1,0h-12v-3h12Zm-24.1,0h-12v-3h12Zm-24.1,0H90.35v-3H102.4Zm-24.1,0h-12v-3h12Zm-24.1,0H42.15v-3H54.2Zm-24.1,0h-12v-3H30.1Z"/><rect class="cls-2" x="1464" y="17.37" width="6" height="3"/></g></g></svg>