<svg xmlns="http://www.w3.org/2000/svg" viewBox="0 0 79.57 32.12"><defs><style>.cls-1{fill:#2e3b42;}.cls-2{fill:#ffc646;}.cls-3{fill:#ffd859;}.cls-4{fill:#ff8b46;}.cls-5{fill:#ff3e2e;}.cls-6{fill:#84aea9;}.cls-7{fill:#fff;}.cls-8{fill:#b4c2c2;}</style></defs><title>voiture</title><g id="Calque_2" data-name="Calque 2"><g id="_ëîé_1" data-name="—ëîé_1"><rect class="cls-1" x="4.43" y="13.64" width="64.23" height="13.93"/><path class="cls-2" d="M.58,11.67c-1,2.22,1.18,15.9,1.18,15.9H7.57s-1.45-9.91,7.8-10.17c8.64-.24,8,10.17,8,10.17H50.77s-1.83-11,8.95-10.19c7,.5,7.34,10.19,7.34,10.19H77.92c1.43-2.44,3.69-12-2.15-15.29-3-1.67-15.24-3.06-15.24-3.06S46.94.89,34.91.07,12,5.56,8.54,7.39,1.55,9.63.58,11.67Z"/><path class="cls-3" d="M75.77,12.38c-3-1.67-15.24-3.05-15.24-3.05S46.94,1,34.91.17a37.8,37.8,0,0,0-12.77,1.5c18.4,1.4,29.88,11.27,52,13.23,1.78.16,3.9,3.17,1.62,11.46h2.13C79.35,23.92,81.61,15.67,75.77,12.38Z"/><path class="cls-3" d="M11.27,11.09a92.25,92.25,0,0,0,21.38,3.28A110.52,110.52,0,0,0,56.18,12Z"/><path class="cls-4" d="M11.27,11.09S19.32,1.59,31,1.15,53.52,9.1,56.18,12C44.89,12.2,11.27,11.09,11.27,11.09Z"/><path class="cls-1" d="M13,10.75S20.36,2.4,31.17,2,52,8.92,54.42,11.57C44,11.77,13,10.75,13,10.75Z"/><polygon class="cls-5" points="1.15 13.23 1.76 17.27 5.81 13.47 1.15 13.23"/><path class="cls-1" d="M38.36.6S49.35,3.83,57.07,11c1.2,0,2.16-.76,3.29-1.74C58.91,8.36,48.62,2.17,38.36.6Z"/><rect class="cls-4" x="32.27" y="1.15" width="0.38" height="24.99"/><path class="cls-1" d="M22.38,25.12a7,7,0,1,1-7-7A7,7,0,0,1,22.38,25.12Z"/><path class="cls-6" d="M20.25,25.12a4.88,4.88,0,1,1-4.88-4.87A4.88,4.88,0,0,1,20.25,25.12Z"/><path class="cls-1" d="M19.24,25.12a3.88,3.88,0,1,1-3.87-3.87A3.87,3.87,0,0,1,19.24,25.12Z"/><polygon class="cls-6" points="19.74 24.49 17.09 24.49 18.96 22.62 18.07 21.73 16.2 23.6 16.2 20.96 14.94 20.96 14.94 23.6 13.07 21.73 12.18 22.62 14.05 24.49 11.4 24.49 11.4 25.75 14.05 25.75 12.18 27.62 13.07 28.51 14.94 26.64 14.94 29.29 16.2 29.29 16.2 26.64 18.07 28.51 18.96 27.62 17.09 25.75 19.74 25.75 19.74 24.49"/><path class="cls-1" d="M16.39,25.12a1,1,0,1,1-1-1A1,1,0,0,1,16.39,25.12Z"/><path class="cls-1" d="M65.53,25.12a7,7,0,1,1-7-7A7,7,0,0,1,65.53,25.12Z"/><path class="cls-6" d="M63.4,25.12a4.88,4.88,0,1,1-4.88-4.87A4.87,4.87,0,0,1,63.4,25.12Z"/><path class="cls-1" d="M62.39,25.12a3.88,3.88,0,1,1-3.87-3.87A3.87,3.87,0,0,1,62.39,25.12Z"/><polygon class="cls-6" points="62.89 24.49 60.25 24.49 62.12 22.62 61.23 21.73 59.36 23.6 59.36 20.96 58.1 20.96 58.1 23.6 56.23 21.73 55.33 22.62 57.2 24.49 54.56 24.49 54.56 25.75 57.2 25.75 55.33 27.62 56.23 28.51 58.1 26.64 58.1 29.29 59.36 29.29 59.36 26.64 61.23 28.51 62.12 27.62 60.25 25.75 62.89 25.75 62.89 24.49"/><path class="cls-1" d="M59.54,25.12a1,1,0,1,1-1-1A1,1,0,0,1,59.54,25.12Z"/><path class="cls-1" d="M23.58,1.29a63.89,63.89,0,0,0-15,6.2c-.71.37-1.45.77-2.18,1.17l4.13,2.09a20.91,20.91,0,0,1,7.58-6.68C20.39,2.86,22.23,1.94,23.58,1.29Z"/><path class="cls-7" d="M68.66,14s.71,2.93,2.84,3.28a36.28,36.28,0,0,0,6,.13s-.75-2.32-2.08-2.8C73.1,13.76,68.66,14,68.66,14Z"/><path class="cls-8" d="M72,14c-1.73-.11-3.29,0-3.29,0s.71,2.93,2.84,3.28l.15,0C71.67,16.21,71.84,15.16,72,14Z"/><path class="cls-4" d="M74.84,17.59a22.43,22.43,0,0,1-3.37-.2c-2.21-.36-2.93-3.27-3-3.39l0-.18h.19s.5,0,1.23,0a19.36,19.36,0,0,1,5.54.64c1.38.49,2.15,2.8,2.18,2.89l.06.19h-.2S76.26,17.59,74.84,17.59Zm-6-3.48c.2.63,1,2.7,2.66,3a21.69,21.69,0,0,0,3.32.2c1.06,0,2,0,2.41-.06-.21-.55-.89-2.15-1.92-2.51a18.94,18.94,0,0,0-5.44-.63Z"/><path class="cls-1" d="M79.57,19.91s-5.89-.23-6.24-.15.16,2.42.16,2.42l5.79.28Z"/><rect class="cls-1" x="18.58" y="14.14" width="3.56" height="0.84"/><rect class="cls-1" x="34.77" y="14.14" width="3.56" height="0.84"/><path class="cls-4" d="M18.5,18a7.54,7.54,0,0,1-3.72-7l.3.05a7.29,7.29,0,0,0,3.58,6.73Z"/><rect class="cls-4" x="54.82" y="11.6" width="0.31" height="5.84"/><rect class="cls-1" y="19.34" width="3.74" height="2.25"/><path class="cls-4" d="M68.73,25.73c-.62-4.07-3-9.76-8.88-10.18-3.72-.26-6.59.68-8.53,2.81a11.08,11.08,0,0,0-2.5,7.37H25.12c-.17-2.06-.79-5.32-3-7.6a8.64,8.64,0,0,0-6.82-2.56A9.43,9.43,0,0,0,8,18.74a11.43,11.43,0,0,0-2.35,7H1.47c.17,1.12.29,1.84.29,1.84H7.57s-1.45-9.91,7.8-10.17c8.64-.24,8,10.17,8,10.17H50.77s-1.83-11,8.95-10.19c7,.5,7.34,10.19,7.34,10.19H77.92a10.16,10.16,0,0,0,.76-1.84Z"/></g></g></svg>