<svg xmlns="http://www.w3.org/2000/svg" viewBox="0 0 1259.68 193.39"><defs><style>.cls-1{fill:#d6ffff;}.cls-2{fill:azure;}</style></defs><title>nuage3</title><g id="Calque_2" data-name="Calque 2"><g id="_ëîé_1" data-name="—ëîé_1"><path class="cls-1" d="M101.59,64.94A21.65,21.65,0,1,0,60,53a12.8,12.8,0,0,0-5.39-1.18,13,13,0,0,0-9.92,4.59A20.73,20.73,0,0,0,32,52,20.21,20.21,0,0,0,12.9,64.94Z"/><path class="cls-1" d="M361.46,50.33c-3.6-3.77-10.24-6.3-17.84-6.3a31.62,31.62,0,0,0-8.52,1.14,12.43,12.43,0,0,0-11.85-9.1,12.25,12.25,0,0,0-10,5.26,16.36,16.36,0,0,0-30.92,1.49,29.84,29.84,0,0,0-12.65-2.66c-10,0-18.32,4.36-20.29,10.17Z"/><path class="cls-2" d="M74.13,153.18c-2.39-2.49-6.78-4.17-11.8-4.17a21.07,21.07,0,0,0-5.64.75,8.23,8.23,0,0,0-7.84-6,8.09,8.09,0,0,0-6.6,3.47,10.83,10.83,0,0,0-20.46,1,19.58,19.58,0,0,0-8.37-1.77c-6.61,0-12.12,2.89-13.42,6.73Z"/><path class="cls-1" d="M142.62,38.59a12.14,12.14,0,0,0-22.39,0Z"/><path class="cls-1" d="M560.71,105.31c0-.33,0-.67,0-1,0-10.1-7.07-18.29-15.81-18.29a14.28,14.28,0,0,0-8.71,3c-3.68-6.72-10.15-11.19-17.54-11.19-8.39,0-15.62,5.78-18.87,14.09a14.83,14.83,0,0,0-15.27-3.37,10.38,10.38,0,0,0-8.8-5.32,10.27,10.27,0,0,0-8.48,4.84,23.87,23.87,0,0,0-4.1-.36c-7.92,0-14.75,3.85-18,9.41a10,10,0,0,0-5.2-1.46c-5.3,0-9.69,4.16-10.57,9.63Z"/><path class="cls-2" d="M732.62,135.4c0-.29,0-.57,0-.86,0-8.54,6-15.46,13.36-15.46a12.06,12.06,0,0,1,7.37,2.57c3.11-5.69,8.58-9.46,14.82-9.46,7.1,0,13.2,4.88,16,11.9a12.75,12.75,0,0,1,8.77-3.55,12.31,12.31,0,0,1,4.13.71,8.37,8.37,0,0,1,14.62-.41,19.54,19.54,0,0,1,3.46-.3c6.69,0,12.46,3.25,15.19,8a8.53,8.53,0,0,1,4.4-1.24,9.32,9.32,0,0,1,8.93,8.15Z"/><path class="cls-1" d="M590.39,102.45a12.14,12.14,0,0,0-22.38,0Z"/><path class="cls-2" d="M1084.9,187.47a11.35,11.35,0,0,0-6.94-4.41,11.33,11.33,0,1,0-18.61-12.62,17.12,17.12,0,0,0-21.14,5.79,12,12,0,0,0-3.86-.64,12.26,12.26,0,0,0-6.79,2,12.21,12.21,0,0,0-6.78-2,12.38,12.38,0,0,0-2,.19v-.19a12.26,12.26,0,0,0-24.51,0s0,.1,0,.16a11.14,11.14,0,0,0-1.84-.16,12.25,12.25,0,0,0-12.24,11.88Z"/><path class="cls-1" d="M1034.25,32.78a4.34,4.34,0,0,0,.35-1.69c0-5.6-11-10.14-24.52-10.14l-1.32,0a14.69,14.69,0,0,0,1.32-6.1,14.88,14.88,0,0,0-29.75,0c0,.16,0,.32,0,.47a10.37,10.37,0,0,0-3.07-.47A10.14,10.14,0,0,0,967.15,25v0c-.84,0-1.68,0-2.54,0-11.56,0-21.26,3.31-23.83,7.77Z"/><path class="cls-1" d="M1259.68,153.23c-3.61-3.77-10.25-6.29-17.85-6.29a31.63,31.63,0,0,0-8.52,1.13,12.44,12.44,0,0,0-11.85-9.1,12.23,12.23,0,0,0-10,5.26,16.37,16.37,0,0,0-30.93,1.5,29.69,29.69,0,0,0-12.65-2.67c-10,0-18.32,4.36-20.29,10.17Z"/><path class="cls-1" d="M1101.49,44.61a14.88,14.88,0,0,0-29.13,0Z"/><path class="cls-2" d="M961.82,186.71a8.39,8.39,0,0,0-2.72.45,10.4,10.4,0,0,0-16.4,6.23H970A8.41,8.41,0,0,0,961.82,186.71Z"/><path class="cls-2" d="M697.59,125.93a11.09,11.09,0,0,1,3.62.61,13.87,13.87,0,0,1,21.87,8.3H686.62A11.21,11.21,0,0,1,697.59,125.93Z"/><path class="cls-1" d="M949,100.46c-.65-6.32-7.35-11.29-15.55-11.29a19.4,19.4,0,0,0-3.69.36c0-.12,0-.24,0-.36,0-4.94-5.35-8.94-11.95-8.94a14.52,14.52,0,0,0-7.52,2c-1.1-6.2-7.18-11-14.54-11a15.85,15.85,0,0,0-9.69,3.22,15.51,15.51,0,0,0-11.61-5c-6.91,0-12.7,4.19-14.28,9.85a30.63,30.63,0,0,0-14-3.15c-10.2,0-18.71,4.3-20.89,10.06a11.35,11.35,0,0,0-19.84,7.55c0,.28,0,.55,0,.83a15.12,15.12,0,0,0-17.46,5.81Z"/><path class="cls-2" d="M684.44,162.42c-2.39-2.49-6.79-4.17-11.81-4.17A21.13,21.13,0,0,0,667,159a8.21,8.21,0,0,0-7.83-6,8.1,8.1,0,0,0-6.61,3.47,10.83,10.83,0,0,0-20.46,1,19.73,19.73,0,0,0-8.37-1.76c-6.61,0-12.12,2.89-13.42,6.73Z"/></g></g></svg>