<svg xmlns="http://www.w3.org/2000/svg" viewBox="0 0 960.27 38.85"><defs><style>.cls-1{fill:#2e3b42;}.cls-2{fill:#fe6b32;}.cls-3{fill:#fea932;}.cls-4{fill:#c0432d;}.cls-5{fill:#ff3e2e;}.cls-6{fill:#84aea9;}.cls-7{fill:#fff;}.cls-8{fill:#b4c2c2;}.cls-9{fill:#a9ccce;}.cls-10{fill:#d8eae7;}.cls-11{fill:#98b1b5;}</style></defs><title>voiture4</title><g id="Calque_2" data-name="Calque 2"><g id="_ëîé_1" data-name="—ëîé_1"><rect class="cls-1" x="9.86" y="20.4" width="58.05" height="12.58"/><path class="cls-2" d="M71.39,18.62c.94,2-1.06,14.37-1.06,14.37H65.08s1.31-9-7-9.19C50.22,23.58,50.84,33,50.84,33H26s1.66-9.9-8.08-9.21C11.6,24.23,11.31,33,11.31,33H1.5C.2,30.78-1.85,22.14,3.43,19.18c2.69-1.52,13.77-2.77,13.77-2.77S29.49,8.88,40.37,8.14s20.7,5,23.83,6.61S70.52,16.78,71.39,18.62Z"/><path class="cls-3" d="M3.43,19.26C6.12,17.75,17.2,16.5,17.2,16.5S29.49,9,40.37,8.23A34.06,34.06,0,0,1,51.91,9.58c-16.63,1.27-27,10.19-47,12-1.61.15-3.52,2.87-1.46,10.36H1.5C.2,29.69-1.85,22.23,3.43,19.26Z"/><path class="cls-3" d="M61.74,18.1a82.94,82.94,0,0,1-19.33,3A100.84,100.84,0,0,1,21.15,18.9Z"/><path class="cls-4" d="M61.74,18.1s-7.28-8.59-17.88-9S23.54,16.3,21.15,18.9C31.34,19.1,61.74,18.1,61.74,18.1Z"/><path class="cls-1" d="M60.15,17.79s-6.64-7.55-16.41-7.92-18.79,6.26-21,8.66C32.13,18.71,60.15,17.79,60.15,17.79Z"/><polygon class="cls-5" points="70.88 20.03 70.33 23.69 66.67 20.24 70.88 20.03"/><path class="cls-1" d="M37.24,8.61S27.32,11.54,20.34,18c-1.08,0-2-.69-3-1.57C18.68,15.62,28,10.3,37.24,8.61Z"/><rect class="cls-4" x="42.41" y="9.11" width="0.35" height="22.58"/><path class="cls-1" d="M51.7,30.78A6.34,6.34,0,1,0,58,24.45,6.33,6.33,0,0,0,51.7,30.78Z"/><path class="cls-6" d="M53.62,30.78A4.41,4.41,0,1,0,58,26.37,4.4,4.4,0,0,0,53.62,30.78Z"/><path class="cls-1" d="M54.52,30.78A3.51,3.51,0,1,0,58,27.28,3.51,3.51,0,0,0,54.52,30.78Z"/><polygon class="cls-6" points="54.07 30.21 56.47 30.21 54.77 28.52 55.58 27.71 57.27 29.4 57.27 27.01 58.41 27.01 58.41 29.4 60.1 27.71 60.91 28.52 59.22 30.21 61.61 30.21 61.61 31.35 59.22 31.35 60.91 33.04 60.1 33.84 58.41 32.15 58.41 34.54 57.27 34.54 57.27 32.15 55.58 33.84 54.77 33.04 56.47 31.35 54.07 31.35 54.07 30.21"/><path class="cls-1" d="M57.11,30.78a.92.92,0,1,0,.92-.92A.92.92,0,0,0,57.11,30.78Z"/><path class="cls-1" d="M12.69,30.78A6.34,6.34,0,1,0,19,24.45,6.34,6.34,0,0,0,12.69,30.78Z"/><path class="cls-6" d="M14.62,30.78A4.41,4.41,0,1,0,19,26.37,4.4,4.4,0,0,0,14.62,30.78Z"/><path class="cls-1" d="M15.52,30.78A3.51,3.51,0,1,0,19,27.28,3.51,3.51,0,0,0,15.52,30.78Z"/><polygon class="cls-6" points="15.07 30.21 17.47 30.21 15.78 28.52 16.58 27.71 18.27 29.4 18.27 27.01 19.41 27.01 19.41 29.4 21.1 27.71 21.91 28.52 20.22 30.21 22.61 30.21 22.61 31.35 20.22 31.35 21.91 33.04 21.1 33.84 19.41 32.15 19.41 34.54 18.27 34.54 18.27 32.15 16.58 33.84 15.78 33.04 17.47 31.35 15.07 31.35 15.07 30.21"/><path class="cls-1" d="M18.1,30.78a.93.93,0,1,0,.93-.92A.93.93,0,0,0,18.1,30.78Z"/><path class="cls-1" d="M50.61,9.24a58.26,58.26,0,0,1,13.59,5.6l2,1.06-3.74,1.89a18.86,18.86,0,0,0-6.86-6C53.49,10.66,51.82,9.83,50.61,9.24Z"/><path class="cls-7" d="M9.86,20.69s-.63,2.64-2.56,3a33.27,33.27,0,0,1-5.39.11s.68-2.1,1.88-2.53A21.45,21.45,0,0,1,9.86,20.69Z"/><path class="cls-8" d="M6.88,20.73c1.57-.1,3,0,3,0s-.63,2.64-2.56,3l-.14,0C7.14,22.72,7,21.77,6.88,20.73Z"/><path class="cls-4" d="M4.27,24c-1.27,0-2.36-.06-2.36-.06H1.72l.06-.17c0-.09.71-2.17,2-2.62a17.83,17.83,0,0,1,5-.58c.66,0,1.11,0,1.11,0H10l0,.16c0,.11-.67,2.74-2.67,3.07A19.93,19.93,0,0,1,4.27,24ZM2.1,23.64c.36,0,1.21.06,2.17.06a19.44,19.44,0,0,0,3-.18c1.54-.26,2.22-2.13,2.4-2.7H8.76a17.08,17.08,0,0,0-4.93.57C2.9,21.71,2.29,23.15,2.1,23.64Z"/><path class="cls-1" d="M0,26.07s5.32-.21,5.64-.14-.14,2.19-.14,2.19l-5.24.25Z"/><rect class="cls-1" x="51.91" y="20.86" width="3.22" height="0.76"/><rect class="cls-1" x="37.27" y="20.86" width="3.22" height="0.76"/><path class="cls-4" d="M55.2,24.31l-.15-.23A6.58,6.58,0,0,0,58.29,18l.27,0A6.85,6.85,0,0,1,55.2,24.31Z"/><rect class="cls-4" x="22.09" y="18.55" width="0.28" height="5.28"/><rect class="cls-1" x="68.53" y="25.55" width="3.38" height="2.03"/><path class="cls-4" d="M9.8,31.33c.56-3.68,2.67-8.82,8-9.2,3.35-.24,6,.62,7.7,2.54a10,10,0,0,1,2.26,6.66H49.22a11.27,11.27,0,0,1,2.69-6.87,7.85,7.85,0,0,1,6.16-2.32A8.51,8.51,0,0,1,64.67,25a10.32,10.32,0,0,1,2.13,6.32h3.78c-.15,1-.25,1.66-.25,1.66H65.08s1.31-9-7-9.19C50.22,23.58,50.84,33,50.84,33H26s1.66-9.9-8.08-9.21C11.6,24.23,11.31,33,11.31,33H1.5a9.27,9.27,0,0,1-.7-1.66Z"/><rect class="cls-1" x="898.22" y="19.06" width="58.05" height="12.58"/><path class="cls-9" d="M959.75,17.28c.94,2-1.06,14.37-1.06,14.37h-5.26s1.32-8.95-7-9.19c-7.8-.22-7.18,9.19-7.18,9.19H914.39s1.65-9.9-8.09-9.21c-6.34.45-6.63,9.21-6.63,9.21h-9.81c-1.29-2.21-3.35-10.85,1.93-13.82,2.69-1.51,13.77-2.76,13.77-2.76s12.29-7.54,23.16-8.27,20.7,5,23.83,6.61S958.88,15.44,959.75,17.28Z"/><path class="cls-10" d="M891.79,17.92c2.69-1.51,13.77-2.76,13.77-2.76s12.29-7.53,23.16-8.27a34,34,0,0,1,11.54,1.35c-16.63,1.27-27,10.19-47,12-1.61.15-3.52,2.87-1.46,10.36h-1.92C888.57,28.35,886.51,20.89,891.79,17.92Z"/><path class="cls-10" d="M950.09,16.75a83.22,83.22,0,0,1-19.32,3,99.89,99.89,0,0,1-21.27-2.17Z"/><path class="cls-11" d="M950.09,16.75s-7.28-8.58-17.87-9S911.9,15,909.5,17.55C919.7,17.76,950.09,16.75,950.09,16.75Z"/><path class="cls-1" d="M948.5,16.45s-6.63-7.55-16.4-7.92-18.8,6.26-21,8.66C920.49,17.37,948.5,16.45,948.5,16.45Z"/><polygon class="cls-5" points="959.24 18.69 958.69 22.34 955.02 18.9 959.24 18.69"/><path class="cls-1" d="M925.6,7.27s-9.93,2.93-16.9,9.36c-1.09,0-2-.68-3-1.56C907,14.28,916.35,8.86,925.6,7.27Z"/><rect class="cls-11" x="930.77" y="7.77" width="0.35" height="22.58"/><path class="cls-1" d="M940.05,29.44a6.34,6.34,0,1,0,6.33-6.34A6.33,6.33,0,0,0,940.05,29.44Z"/><path class="cls-6" d="M942,29.44a4.41,4.41,0,1,0,4.4-4.41A4.4,4.4,0,0,0,942,29.44Z"/><path class="cls-1" d="M942.88,29.44a3.5,3.5,0,1,0,3.5-3.5A3.5,3.5,0,0,0,942.88,29.44Z"/><polygon class="cls-6" points="942.43 28.87 944.82 28.87 943.13 27.18 943.94 26.37 945.63 28.06 945.63 25.67 946.77 25.67 946.77 28.06 948.46 26.37 949.26 27.18 947.57 28.87 949.97 28.87 949.97 30.01 947.57 30.01 949.26 31.69 948.46 32.5 946.77 30.81 946.77 33.2 945.63 33.2 945.63 30.81 943.94 32.5 943.13 31.69 944.82 30.01 942.43 30.01 942.43 28.87"/><path class="cls-1" d="M945.46,29.44a.92.92,0,1,0,.92-.93A.92.92,0,0,0,945.46,29.44Z"/><path class="cls-1" d="M901.05,29.44a6.33,6.33,0,1,0,6.33-6.34A6.33,6.33,0,0,0,901.05,29.44Z"/><path class="cls-6" d="M903,29.44A4.41,4.41,0,1,0,907.38,25,4.41,4.41,0,0,0,903,29.44Z"/><path class="cls-1" d="M903.88,29.44a3.51,3.51,0,1,0,3.5-3.5A3.5,3.5,0,0,0,903.88,29.44Z"/><polygon class="cls-6" points="903.43 28.87 905.82 28.87 904.13 27.18 904.94 26.37 906.63 28.06 906.63 25.67 907.77 25.67 907.77 28.06 909.46 26.37 910.27 27.18 908.58 28.87 910.97 28.87 910.97 30.01 908.58 30.01 910.27 31.69 909.46 32.5 907.77 30.81 907.77 33.2 906.63 33.2 906.63 30.81 904.94 32.5 904.13 31.69 905.82 30.01 903.43 30.01 903.43 28.87"/><path class="cls-1" d="M906.46,29.44a.92.92,0,1,0,.92-.93A.93.93,0,0,0,906.46,29.44Z"/><path class="cls-1" d="M939,7.9a58.07,58.07,0,0,1,13.59,5.6l2,1.06-3.74,1.89a18.87,18.87,0,0,0-6.85-6C941.85,9.31,940.19,8.49,939,7.9Z"/><path class="cls-7" d="M898.22,19.35s-.64,2.64-2.57,3a32.38,32.38,0,0,1-5.38.12s.67-2.1,1.87-2.52C894.21,19.17,898.22,19.35,898.22,19.35Z"/><path class="cls-8" d="M895.24,19.39c1.57-.1,3,0,3,0s-.64,2.64-2.57,3l-.13,0C895.5,21.38,895.35,20.43,895.24,19.39Z"/><path class="cls-11" d="M892.63,22.63c-1.28,0-2.36-.06-2.37-.06h-.18l0-.17c0-.09.72-2.17,2-2.62a17.76,17.76,0,0,1,5-.58c.66,0,1.11,0,1.11,0h.17l0,.16c0,.11-.68,2.74-2.67,3.07A20,20,0,0,1,892.63,22.63Zm-2.17-.33c.36,0,1.21.06,2.17.06a19.29,19.29,0,0,0,3-.18c1.55-.26,2.23-2.13,2.41-2.7h-.93a17.43,17.43,0,0,0-4.92.56C891.26,20.37,890.65,21.81,890.46,22.3Z"/><path class="cls-1" d="M888.36,24.73s5.33-.21,5.63-.14-.13,2.19-.13,2.19l-5.24.25Z"/><rect class="cls-1" x="940.26" y="19.52" width="3.22" height="0.76"/><rect class="cls-1" x="925.63" y="19.52" width="3.22" height="0.76"/><path class="cls-11" d="M943.56,23l-.15-.23a6.53,6.53,0,0,0,3.23-6.08l.27-.05A6.81,6.81,0,0,1,943.56,23Z"/><rect class="cls-11" x="910.45" y="17.21" width="0.28" height="5.28"/><rect class="cls-1" x="956.89" y="24.21" width="3.38" height="2.03"/><path class="cls-11" d="M898.16,30c.55-3.68,2.67-8.82,8-9.2,3.36-.24,6,.61,7.71,2.54A10,10,0,0,1,916.15,30h21.42a11.31,11.31,0,0,1,2.7-6.87,7.85,7.85,0,0,1,6.16-2.32,8.51,8.51,0,0,1,6.6,2.87A10.39,10.39,0,0,1,955.16,30h3.78c-.15,1-.25,1.66-.25,1.66h-5.26s1.32-8.95-7-9.19c-7.8-.22-7.18,9.19-7.18,9.19H914.39s1.65-9.9-8.09-9.21c-6.34.45-6.63,9.21-6.63,9.21h-9.81a8.59,8.59,0,0,1-.7-1.66Z"/><rect class="cls-1" x="121.73" y="17.05" width="66.41" height="14.23"/><path class="cls-1" d="M144.12,31.05a7.81,7.81,0,1,1-7.8-7.79A7.8,7.8,0,0,1,144.12,31.05Z"/><path class="cls-6" d="M141.75,31.05a5.43,5.43,0,1,1-5.43-5.42A5.43,5.43,0,0,1,141.75,31.05Z"/><path class="cls-1" d="M140.63,31.05a4.32,4.32,0,1,1-4.31-4.31A4.32,4.32,0,0,1,140.63,31.05Z"/><polygon class="cls-6" points="141.19 30.35 138.24 30.35 140.32 28.27 139.33 27.28 137.25 29.36 137.25 26.42 135.84 26.42 135.84 29.36 133.76 27.28 132.77 28.27 134.85 30.35 131.91 30.35 131.91 31.76 134.85 31.76 132.77 33.84 133.76 34.83 135.84 32.75 135.84 35.69 137.25 35.69 137.25 32.75 139.33 34.83 140.32 33.84 138.24 31.76 141.19 31.76 141.19 30.35"/><path class="cls-1" d="M137.45,31.05a1.13,1.13,0,1,1-1.13-1.13A1.13,1.13,0,0,1,137.45,31.05Z"/><path class="cls-1" d="M186.05,31.05a7.8,7.8,0,1,1-7.8-7.79A7.8,7.8,0,0,1,186.05,31.05Z"/><path class="cls-6" d="M183.68,31.05a5.44,5.44,0,1,1-5.43-5.42A5.43,5.43,0,0,1,183.68,31.05Z"/><path class="cls-1" d="M182.56,31.05a4.32,4.32,0,1,1-4.31-4.31A4.32,4.32,0,0,1,182.56,31.05Z"/><polygon class="cls-6" points="183.12 30.35 180.17 30.35 182.25 28.27 181.26 27.28 179.18 29.36 179.18 26.42 177.78 26.42 177.78 29.36 175.69 27.28 174.7 28.27 176.78 30.35 173.84 30.35 173.84 31.76 176.78 31.76 174.7 33.84 175.69 34.83 177.78 32.75 177.78 35.69 179.18 35.69 179.18 32.75 181.26 34.83 182.25 33.84 180.17 31.76 183.12 31.76 183.12 30.35"/><path class="cls-1" d="M179.38,31.05a1.13,1.13,0,1,1-1.13-1.13A1.13,1.13,0,0,1,179.38,31.05Z"/><path class="cls-9" d="M127.15,31.05a9.17,9.17,0,0,1,18.34,0c0,.08,0,.15,0,.23h23.61c0-.08,0-.15,0-.23a9.17,9.17,0,0,1,18.34,0c0,.08,0,.15,0,.23l1.94-.23s.12-27.37-2.16-29.5S153.59-.23,149.61.91s-15.14,10.5-15.14,10.5-12.12,3.51-16.53,5.64-1.57,14.23-1.57,14.23h10.79C127.16,31.2,127.15,31.13,127.15,31.05Z"/><path class="cls-10" d="M143.12,11.37s7.83,2.83,21.35,3S181,11.29,183.12,8s1.27-4.48,1.27-4.48Z"/><path class="cls-10" d="M120.59,19.43c17.67-3.73,17.55-7.78,27.8-14.61,4.52-4.76,26-2.41,39-1.68-.3-1.35.15-1.27-.2-1.59-2.27-2.13-33.6-1.78-37.58-.64s-15.14,10.5-15.14,10.5-12.12,3.51-16.53,5.64-1.57,14.23-1.57,14.23h2.2C117.85,27.84,118.3,19.91,120.59,19.43Z"/><path class="cls-11" d="M166.12,12.31c-9.67,0-22.88-.37-23-.37l-1.48,0,1.13-1c.31-.27,7.84-6.64,12.89-7.93,1.51-.4,4.8-.59,9.77-.59,8.39,0,18.9.56,19,.57l1,0-.6.85c-.21.29-5.15,7.14-8.58,8C175.26,12.18,171.93,12.31,166.12,12.31Z"/><path class="cls-1" d="M143.12,11.37s7.69-6.55,12.67-7.83,28.6,0,28.6,0-5,7-8.25,7.83S143.12,11.37,143.12,11.37Z"/><path class="cls-1" d="M120.85,24.64s-5.48-.38-5.8-.25.82,5.11.82,5.11h5Z"/><polygon class="cls-5" points="189.1 15.81 188.96 19.61 184.81 16.52 189.1 15.81"/><rect class="cls-1" x="187.97" y="21.57" width="2.25" height="2.1"/><path class="cls-1" d="M148.55,1.33c-4,1.9-11.7,8.07-13.64,9.71,1,.76,1.75,1.25,2.54,1.11,1.19-.21,13.64-10.1,13.86-10.1A7.6,7.6,0,0,1,148.55,1.33Z"/><path class="cls-7" d="M128.54,18.49s-.88,3.64-3.52,4.07a44.77,44.77,0,0,1-7.4.17s.93-2.88,2.58-3.48C123,18.24,128.54,18.49,128.54,18.49Z"/><path class="cls-8" d="M124.45,18.55c2.16-.14,4.09-.06,4.09-.06s-.88,3.64-3.52,4.07l-.19,0C124.8,21.28,124.59,20,124.45,18.55Z"/><path class="cls-11" d="M120.87,23c-1.76,0-3.25-.08-3.27-.08l-.24,0,.08-.23c0-.12,1-3,2.69-3.59a24,24,0,0,1,6.89-.8c.91,0,1.52,0,1.52,0h.24l-.06.23c0,.15-.93,3.76-3.67,4.21A26.73,26.73,0,0,1,120.87,23Zm-3-.45c.5,0,1.66.07,3,.07a27.36,27.36,0,0,0,4.12-.24c2.12-.35,3.06-2.92,3.3-3.71H127a24,24,0,0,0-6.76.77C119,19.89,118.14,21.87,117.88,22.55Z"/><rect class="cls-11" x="164.8" y="2.78" width="0.36" height="27.14"/><rect class="cls-1" x="152.06" y="13.95" width="3.31" height="0.78"/><rect class="cls-1" x="173.11" y="14.35" width="3.31" height="0.79"/><path class="cls-11" d="M187.42,31.05c0,.08,0,.15,0,.23l1.94-.23s0-.88.09-2.34A11.44,11.44,0,0,0,167,29h-19.4a11.45,11.45,0,0,0-22.52,0h-9.59l.9,2.28h10.79c0-.08,0-.15,0-.23a9.17,9.17,0,0,1,18.34,0c0,.08,0,.15,0,.23h23.61c0-.08,0-.15,0-.23a9.17,9.17,0,0,1,18.34,0Z"/><path class="cls-11" d="M180.21,20.46l-.27-.08c1.33-5.08-2.88-9-2.92-9l.19-.21S181.59,15.21,180.21,20.46Z"/><path class="cls-11" d="M135.29,20.27l-.22-.18c.26-.32,6.43-7.87,7.5-9l.21.2C141.72,12.41,135.36,20.2,135.29,20.27Z"/></g></g></svg>