<svg xmlns="http://www.w3.org/2000/svg" viewBox="0 0 943.5 38.46"><defs><style>.cls-1{fill:#2e3b42;}.cls-2{fill:#ffc646;}.cls-3{fill:#ffd859;}.cls-4{fill:#ff8b46;}.cls-5{fill:#ff3e2e;}.cls-6{fill:#84aea9;}.cls-7{fill:#fff;}.cls-8{fill:#b4c2c2;}.cls-9{fill:#68c646;}.cls-10{fill:#a9d57c;}.cls-11{fill:#52ac46;}.cls-12{fill:#fe6b32;}.cls-13{fill:#fea932;}.cls-14{fill:#c0432d;}</style></defs><title>voiture3</title><g id="Calque_2" data-name="Calque 2"><g id="_ëîé_1" data-name="—ëîé_1"><rect class="cls-1" x="4.43" y="17.76" width="64.23" height="13.93"/><path class="cls-2" d="M.58,15.79c-1,2.22,1.18,15.9,1.18,15.9H7.57s-1.45-9.91,7.8-10.17c8.64-.24,8,10.17,8,10.17H50.77s-1.83-11,8.95-10.19c7,.5,7.34,10.19,7.34,10.19H77.92c1.43-2.44,3.69-12-2.15-15.29-3-1.67-15.24-3.06-15.24-3.06S46.94,5,34.91,4.19,12,9.68,8.54,11.51,1.55,13.75.58,15.79Z"/><path class="cls-3" d="M75.77,16.5c-3-1.67-15.24-3.05-15.24-3.05S46.94,5.11,34.91,4.29a37.8,37.8,0,0,0-12.77,1.5C40.54,7.19,52,17.06,74.17,19c1.78.16,3.9,3.17,1.62,11.46h2.13C79.35,28,81.61,19.79,75.77,16.5Z"/><path class="cls-3" d="M11.27,15.21a92.25,92.25,0,0,0,21.38,3.28,110.52,110.52,0,0,0,23.53-2.4Z"/><path class="cls-4" d="M11.27,15.21S19.32,5.71,31,5.27s22.48,8,25.14,10.82C44.89,16.32,11.27,15.21,11.27,15.21Z"/><path class="cls-1" d="M13,14.87s7.34-8.35,18.15-8.76S52,13,54.42,15.69C44,15.89,13,14.87,13,14.87Z"/><polygon class="cls-5" points="1.15 17.35 1.76 21.39 5.81 17.59 1.15 17.35"/><path class="cls-1" d="M38.36,4.72S49.35,8,57.07,15.08c1.2,0,2.16-.76,3.29-1.74C58.91,12.48,48.62,6.29,38.36,4.72Z"/><rect class="cls-4" x="32.27" y="5.27" width="0.38" height="24.99"/><path class="cls-1" d="M22.38,29.24a7,7,0,1,1-7-7A7,7,0,0,1,22.38,29.24Z"/><path class="cls-6" d="M20.25,29.24a4.88,4.88,0,1,1-4.88-4.87A4.88,4.88,0,0,1,20.25,29.24Z"/><path class="cls-1" d="M19.24,29.24a3.88,3.88,0,1,1-3.87-3.87A3.87,3.87,0,0,1,19.24,29.24Z"/><polygon class="cls-6" points="19.74 28.61 17.09 28.61 18.96 26.74 18.07 25.85 16.2 27.72 16.2 25.08 14.94 25.08 14.94 27.72 13.07 25.85 12.18 26.74 14.05 28.61 11.4 28.61 11.4 29.87 14.05 29.87 12.18 31.74 13.07 32.63 14.94 30.76 14.94 33.41 16.2 33.41 16.2 30.76 18.07 32.63 18.96 31.74 17.09 29.87 19.74 29.87 19.74 28.61"/><path class="cls-1" d="M16.39,29.24a1,1,0,1,1-1-1A1,1,0,0,1,16.39,29.24Z"/><path class="cls-1" d="M65.53,29.24a7,7,0,1,1-7-7A7,7,0,0,1,65.53,29.24Z"/><path class="cls-6" d="M63.4,29.24a4.88,4.88,0,1,1-4.88-4.87A4.87,4.87,0,0,1,63.4,29.24Z"/><path class="cls-1" d="M62.39,29.24a3.88,3.88,0,1,1-3.87-3.87A3.87,3.87,0,0,1,62.39,29.24Z"/><polygon class="cls-6" points="62.89 28.61 60.25 28.61 62.12 26.74 61.23 25.85 59.36 27.72 59.36 25.08 58.1 25.08 58.1 27.72 56.23 25.85 55.33 26.74 57.2 28.61 54.56 28.61 54.56 29.87 57.2 29.87 55.33 31.74 56.23 32.63 58.1 30.76 58.1 33.41 59.36 33.41 59.36 30.76 61.23 32.63 62.12 31.74 60.25 29.87 62.89 29.87 62.89 28.61"/><path class="cls-1" d="M59.54,29.24a1,1,0,1,1-1-1A1,1,0,0,1,59.54,29.24Z"/><path class="cls-1" d="M23.58,5.41a63.89,63.89,0,0,0-15,6.2c-.71.37-1.45.77-2.18,1.17l4.13,2.09a20.91,20.91,0,0,1,7.58-6.68C20.39,7,22.23,6.06,23.58,5.41Z"/><path class="cls-7" d="M68.66,18.08s.71,2.93,2.84,3.28a36.28,36.28,0,0,0,6,.13s-.75-2.32-2.08-2.8C73.1,17.88,68.66,18.08,68.66,18.08Z"/><path class="cls-8" d="M72,18.12c-1.73-.11-3.29,0-3.29,0s.71,2.93,2.84,3.28l.15,0C71.67,20.33,71.84,19.28,72,18.12Z"/><path class="cls-4" d="M74.84,21.71a22.43,22.43,0,0,1-3.37-.2c-2.21-.36-2.93-3.27-3-3.39l0-.18h.19s.5,0,1.23,0a19.36,19.36,0,0,1,5.54.64c1.38.49,2.15,2.8,2.18,2.89l.06.19h-.2S76.26,21.71,74.84,21.71Zm-6-3.48c.2.63,1,2.7,2.66,3a21.69,21.69,0,0,0,3.32.2c1.06,0,2,0,2.41-.06-.21-.55-.89-2.15-1.92-2.51a18.94,18.94,0,0,0-5.44-.63Z"/><path class="cls-1" d="M79.57,24s-5.89-.23-6.24-.15.16,2.42.16,2.42l5.79.28Z"/><rect class="cls-1" x="18.58" y="18.26" width="3.56" height="0.84"/><rect class="cls-1" x="34.77" y="18.26" width="3.56" height="0.84"/><path class="cls-4" d="M18.5,22.08a7.54,7.54,0,0,1-3.72-7l.3,0a7.29,7.29,0,0,0,3.58,6.73Z"/><rect class="cls-4" x="54.82" y="15.72" width="0.31" height="5.84"/><rect class="cls-1" y="23.46" width="3.74" height="2.25"/><path class="cls-4" d="M68.73,29.85c-.62-4.07-3-9.76-8.88-10.18-3.72-.26-6.59.68-8.53,2.81a11.08,11.08,0,0,0-2.5,7.37H25.12c-.17-2.06-.79-5.32-3-7.6a8.64,8.64,0,0,0-6.82-2.56A9.43,9.43,0,0,0,8,22.86a11.43,11.43,0,0,0-2.35,7H1.47c.17,1.12.29,1.84.29,1.84H7.57s-1.45-9.91,7.8-10.17c8.64-.24,8,10.17,8,10.17H50.77s-1.83-11,8.95-10.19c7,.5,7.34,10.19,7.34,10.19H77.92a10.16,10.16,0,0,0,.76-1.84Z"/><rect class="cls-1" x="868.36" y="16.91" width="64.23" height="13.92"/><path class="cls-9" d="M864.51,14.94c-1,2.21,1.17,15.89,1.17,15.89h5.81s-1.45-9.9,7.8-10.16c8.65-.25,8,10.16,8,10.16H914.7s-1.84-10.95,8.94-10.19c7,.5,7.34,10.19,7.34,10.19h10.86c1.44-2.44,3.7-12-2.14-15.28-3-1.68-15.24-3.06-15.24-3.06s-13.59-8.34-25.62-9.15-22.91,5.48-26.38,7.31S865.47,12.9,864.51,14.94Z"/><path class="cls-10" d="M939.7,15.65c-3-1.68-15.24-3.06-15.24-3.06s-13.59-8.34-25.62-9.15a37.58,37.58,0,0,0-12.78,1.49c18.4,1.41,29.88,11.27,52,13.24,1.78.16,3.89,3.17,1.61,11.45h2.13C943.28,27.19,945.54,18.93,939.7,15.65Z"/><path class="cls-10" d="M875.19,14.35a91.62,91.62,0,0,0,21.38,3.28,110.87,110.87,0,0,0,23.53-2.39Z"/><path class="cls-11" d="M875.19,14.35s8-9.5,19.78-9.94,22.47,8,25.13,10.83C908.82,15.46,875.19,14.35,875.19,14.35Z"/><path class="cls-1" d="M876.94,14s7.35-8.36,18.16-8.77,20.79,6.93,23.24,9.58C907.94,15,876.94,14,876.94,14Z"/><polygon class="cls-5" points="865.07 16.5 865.68 20.54 869.74 16.73 865.07 16.5"/><path class="cls-1" d="M902.29,3.86s11,3.24,18.7,10.36c1.21,0,2.17-.76,3.29-1.73C922.83,11.62,912.54,5.47,902.29,3.86Z"/><rect class="cls-11" x="896.19" y="4.41" width="0.38" height="24.99"/><path class="cls-1" d="M886.3,28.38a7,7,0,1,1-7-7A7,7,0,0,1,886.3,28.38Z"/><path class="cls-6" d="M884.17,28.38a4.88,4.88,0,1,1-4.88-4.87A4.87,4.87,0,0,1,884.17,28.38Z"/><path class="cls-1" d="M883.17,28.38a3.88,3.88,0,1,1-3.88-3.87A3.88,3.88,0,0,1,883.17,28.38Z"/><polygon class="cls-6" points="883.66 27.75 881.02 27.75 882.89 25.89 882 25 880.13 26.86 880.13 24.22 878.87 24.22 878.87 26.86 877 25 876.1 25.89 877.98 27.75 875.33 27.75 875.33 29.02 877.98 29.02 876.1 30.88 877 31.77 878.87 29.91 878.87 32.55 880.13 32.55 880.13 29.91 882 31.77 882.89 30.88 881.02 29.02 883.66 29.02 883.66 27.75"/><path class="cls-1" d="M880.31,28.38a1,1,0,1,1-1-1A1,1,0,0,1,880.31,28.38Z"/><path class="cls-1" d="M929.45,28.38a7,7,0,1,1-7-7A7,7,0,0,1,929.45,28.38Z"/><path class="cls-6" d="M927.32,28.38a4.88,4.88,0,1,1-4.87-4.87A4.87,4.87,0,0,1,927.32,28.38Z"/><path class="cls-1" d="M926.32,28.38a3.88,3.88,0,1,1-3.87-3.87A3.87,3.87,0,0,1,926.32,28.38Z"/><polygon class="cls-6" points="926.82 27.75 924.17 27.75 926.04 25.89 925.15 25 923.28 26.86 923.28 24.22 922.02 24.22 922.02 26.86 920.15 25 919.26 25.89 921.13 27.75 918.48 27.75 918.48 29.02 921.13 29.02 919.26 30.88 920.15 31.77 922.02 29.91 922.02 32.55 923.28 32.55 923.28 29.91 925.15 31.77 926.04 30.88 924.17 29.02 926.82 29.02 926.82 27.75"/><path class="cls-1" d="M923.46,28.38a1,1,0,1,1-1-1A1,1,0,0,1,923.46,28.38Z"/><path class="cls-1" d="M887.5,4.56a63.46,63.46,0,0,0-15,6.2l-2.18,1.16,4.14,2.1A20.82,20.82,0,0,1,882,7.34C884.32,6.12,886.16,5.21,887.5,4.56Z"/><path class="cls-7" d="M932.59,17.22s.7,2.93,2.83,3.28a35.13,35.13,0,0,0,6,.13s-.75-2.32-2.08-2.79C937,17,932.59,17.22,932.59,17.22Z"/><path class="cls-8" d="M935.88,17.27a32.52,32.52,0,0,0-3.29-.05s.7,2.93,2.83,3.28l.15,0C935.6,19.47,935.76,18.42,935.88,17.27Z"/><path class="cls-11" d="M938.76,20.86a20.82,20.82,0,0,1-3.36-.21c-2.21-.36-2.93-3.27-3-3.39l0-.18h.18s.5,0,1.23,0a19.46,19.46,0,0,1,5.55.64c1.38.5,2.14,2.8,2.17,2.9l.06.19h-.2S940.18,20.86,938.76,20.86Zm-6-3.49c.19.63,1,2.7,2.66,3a23.17,23.17,0,0,0,3.31.19c1.07,0,2,0,2.41-.06-.21-.55-.89-2.14-1.92-2.51a19.28,19.28,0,0,0-5.44-.62Z"/><path class="cls-1" d="M943.5,23.17s-5.89-.23-6.24-.15.15,2.42.15,2.42l5.79.28Z"/><rect class="cls-1" x="882.5" y="17.41" width="3.56" height="0.84"/><rect class="cls-1" x="898.7" y="17.41" width="3.56" height="0.84"/><path class="cls-11" d="M882.42,21.23a7.6,7.6,0,0,1-3.72-7l.31.05A7.22,7.22,0,0,0,882.59,21Z"/><rect class="cls-11" x="918.75" y="14.86" width="0.31" height="5.84"/><rect class="cls-1" x="863.92" y="22.6" width="3.74" height="2.25"/><path class="cls-11" d="M932.65,29c-.61-4.07-2.95-9.76-8.88-10.18-3.72-.27-6.58.68-8.52,2.81A11.12,11.12,0,0,0,912.74,29H889a12.53,12.53,0,0,0-3-7.61,8.73,8.73,0,0,0-6.82-2.56,9.4,9.4,0,0,0-7.3,3.18,11.37,11.37,0,0,0-2.36,7H865.4l.28,1.83h5.81s-1.45-9.9,7.8-10.16c8.65-.25,8,10.16,8,10.16H914.7s-1.84-10.95,8.94-10.19c7,.5,7.34,10.19,7.34,10.19h10.86a9.56,9.56,0,0,0,.77-1.83Z"/><rect class="cls-1" x="704.02" y="16.87" width="65.73" height="14.09"/><path class="cls-1" d="M747.58,30.74A7.73,7.73,0,1,0,755.31,23,7.73,7.73,0,0,0,747.58,30.74Z"/><path class="cls-6" d="M749.93,30.74a5.38,5.38,0,1,0,5.38-5.37A5.37,5.37,0,0,0,749.93,30.74Z"/><path class="cls-1" d="M751,30.74a4.27,4.27,0,1,0,4.27-4.27A4.27,4.27,0,0,0,751,30.74Z"/><polygon class="cls-6" points="750.49 30.04 753.41 30.04 751.35 27.98 752.33 27 754.39 29.06 754.39 26.15 755.77 26.15 755.77 29.06 757.84 27 758.82 27.98 756.76 30.04 759.68 30.04 759.68 31.43 756.76 31.43 758.82 33.49 757.84 34.47 755.77 32.41 755.77 35.33 754.39 35.33 754.39 32.41 752.33 34.47 751.35 33.49 753.41 31.43 750.49 31.43 750.49 30.04"/><path class="cls-1" d="M754.19,30.74a1.12,1.12,0,1,0,1.12-1.12A1.12,1.12,0,0,0,754.19,30.74Z"/><path class="cls-1" d="M706.08,30.74A7.73,7.73,0,1,0,713.81,23,7.73,7.73,0,0,0,706.08,30.74Z"/><path class="cls-6" d="M708.44,30.74a5.38,5.38,0,1,0,5.37-5.37A5.36,5.36,0,0,0,708.44,30.74Z"/><path class="cls-1" d="M709.54,30.74a4.27,4.27,0,1,0,4.27-4.27A4.27,4.27,0,0,0,709.54,30.74Z"/><polygon class="cls-6" points="708.99 30.04 711.9 30.04 709.85 27.98 710.83 27 712.89 29.06 712.89 26.15 714.28 26.15 714.28 29.06 716.33 27 717.32 27.98 715.26 30.04 718.17 30.04 718.17 31.43 715.26 31.43 717.32 33.49 716.33 34.47 714.28 32.41 714.28 35.33 712.89 35.33 712.89 32.41 710.83 34.47 709.85 33.49 711.9 31.43 708.99 31.43 708.99 30.04"/><path class="cls-1" d="M712.69,30.74a1.12,1.12,0,1,0,1.12-1.12A1.12,1.12,0,0,0,712.69,30.74Z"/><path class="cls-12" d="M764.38,30.74a9.08,9.08,0,0,0-18.15,0c0,.07,0,.14,0,.22H722.87c0-.08,0-.15,0-.22a9.08,9.08,0,0,0-18.15,0c0,.07,0,.14,0,.22l-1.92-.22S702.7,3.65,705,1.53,738.21-.23,742.15.9s15,10.4,15,10.4,12,3.47,16.37,5.58S775.05,31,775.05,31H764.37A1.7,1.7,0,0,0,764.38,30.74Z"/><path class="cls-13" d="M748.57,11.25s-7.75,2.81-21.13,2.95-16.34-3-18.45-6.26-1.26-4.43-1.26-4.43Z"/><path class="cls-13" d="M770.87,19.23c-17.48-3.69-17.37-7.7-27.51-14.46-4.47-4.71-25.77-2.39-38.61-1.66.3-1.33-.14-1.26.2-1.58,2.26-2.11,33.26-1.76,37.2-.63s15,10.4,15,10.4,12,3.47,16.37,5.58S775.05,31,775.05,31h-2.17C773.59,27.56,773.14,19.71,770.87,19.23Z"/><path class="cls-14" d="M725.81,12.19c9.57,0,22.65-.37,22.78-.38l1.47,0-1.12-.95c-.32-.27-7.76-6.57-12.76-7.86-1.5-.38-4.75-.58-9.67-.58-8.31,0-18.71.56-18.81.57l-1,0,.59.83c.2.29,5.08,7.08,8.48,8C716.77,12.06,720.06,12.19,725.81,12.19Z"/><path class="cls-1" d="M748.57,11.25S741,4.77,736,3.51s-28.31,0-28.31,0,4.93,6.9,8.16,7.74S748.57,11.25,748.57,11.25Z"/><path class="cls-1" d="M770.62,24.39s5.42-.37,5.74-.25-.82,5.06-.82,5.06h-4.92Z"/><polygon class="cls-5" points="703.06 15.65 703.21 19.41 707.31 16.35 703.06 15.65"/><rect class="cls-1" x="701.95" y="21.35" width="2.23" height="2.07"/><path class="cls-1" d="M743.2,1.32c4,1.88,11.59,8,13.5,9.6-1,.76-1.74,1.24-2.51,1.1-1.18-.21-13.5-10-13.72-10A7.85,7.85,0,0,0,743.2,1.32Z"/><path class="cls-7" d="M763,18.3s.86,3.6,3.48,4a43.51,43.51,0,0,0,7.33.16s-.92-2.85-2.55-3.43C768.47,18.06,763,18.3,763,18.3Z"/><path class="cls-8" d="M767.06,18.36c-2.14-.14-4-.06-4-.06s.86,3.6,3.48,4l.19,0C766.71,21.07,766.91,19.77,767.06,18.36Z"/><path class="cls-14" d="M770.6,22.77a26.16,26.16,0,0,1-4.14-.25c-2.71-.45-3.59-4-3.63-4.17l-.05-.22H763s.61,0,1.5,0a23.86,23.86,0,0,1,6.82.79c1.7.61,2.63,3.44,2.67,3.56l.07.23h-.24S772.34,22.77,770.6,22.77Zm-7.34-4.29c.24.78,1.17,3.32,3.26,3.67a26.86,26.86,0,0,0,4.08.24c1.31,0,2.47-.05,3-.07-.26-.68-1.1-2.64-2.36-3.09a23.86,23.86,0,0,0-6.69-.77Z"/><rect class="cls-14" x="726.77" y="2.76" width="0.36" height="26.86"/><rect class="cls-1" x="736.45" y="13.82" width="3.28" height="0.77"/><rect class="cls-1" x="715.62" y="14.2" width="3.28" height="0.77"/><path class="cls-14" d="M704.73,30.74c0,.07,0,.14,0,.22l-1.92-.22s0-.88-.09-2.32a11.32,11.32,0,0,1,22.22.29h19.21a11.33,11.33,0,0,1,22.29,0h9.49L775.05,31H764.37a1.7,1.7,0,0,0,0-.22,9.08,9.08,0,0,0-18.15,0c0,.07,0,.14,0,.22H722.87c0-.08,0-.15,0-.22a9.08,9.08,0,0,0-18.15,0Z"/><path class="cls-14" d="M711.86,20.25c-1.36-5.2,2.93-9.21,3-9.25l.19.22s-4.2,3.93-2.89,9Z"/><path class="cls-14" d="M756.32,20.06c-.07-.07-6.36-7.77-7.4-8.85l.2-.2c1,1.09,7.16,8.56,7.42,8.88Z"/></g></g></svg>